<svg width="273" height="37" viewBox="0 0 273 37" fill="none" xmlns="http://www.w3.org/2000/svg">
<mask id="path-1-outside-1_2_2" maskUnits="userSpaceOnUse" x="0" y="0" width="273" height="37" fill="black">
<rect fill="white" width="273" height="37"/>
<path d="M13.15 29.74C13.15 30.38 12.98 30.89 12.64 31.27C12.3 31.65 11.84 31.84 11.26 31.84H6.91C6.33 31.84 5.87 31.65 5.53 31.27C5.19 30.89 5.02 30.38 5.02 29.74V7.3C5.02 6.66 5.19 6.15 5.53 5.77C5.87 5.39 6.33 5.2 6.91 5.2H18.52C20.4 5.2 21.86 5.74 22.9 6.82C23.96 7.9 24.49 9.5 24.49 11.62V18.01C24.49 20.13 23.96 21.73 22.9 22.81C21.86 23.89 20.4 24.43 18.52 24.43H13.15V29.74ZM15.52 17.2C15.9 17.2 16.2 17.17 16.42 17.11C16.66 17.05 16.81 16.9 16.87 16.66C17.01 16.14 17.08 15.58 17.08 14.98C17.08 14.36 17.01 13.81 16.87 13.33C16.77 13.01 16.61 12.79 16.39 12.67C16.19 12.55 15.9 12.49 15.52 12.49H13.21C13.35 13.19 13.41 13.98 13.39 14.86C13.39 15.72 13.33 16.5 13.21 17.2H15.52ZM46.0002 25.57C46.0002 27.69 45.4702 29.29 44.4102 30.37C43.3702 31.45 41.9202 31.99 40.0602 31.99H32.1102C30.2502 31.99 28.7902 31.45 27.7302 30.37C26.6702 29.29 26.1402 27.69 26.1402 25.57V11.47C26.1402 9.35 26.6702 7.75 27.7302 6.67C28.7902 5.59 30.2502 5.05 32.1102 5.05H40.0602C41.9202 5.05 43.3702 5.59 44.4102 6.67C45.4702 7.75 46.0002 9.35 46.0002 11.47V25.57ZM37.0602 24.7C37.5402 22.74 37.7902 20.71 37.8102 18.61C37.8502 16.49 37.6402 14.4 37.1802 12.34H34.6902C35.1502 14.36 35.3702 16.43 35.3502 18.55C35.3302 20.67 35.1102 22.72 34.6902 24.7H37.0602ZM68.6706 29.92C68.9106 30.5 68.9306 30.96 68.7306 31.3C68.5306 31.66 68.1406 31.84 67.5606 31.84H62.6406C62.0606 31.84 61.5206 31.67 61.0206 31.33C60.5406 30.99 60.1806 30.53 59.9406 29.95L56.5806 22.18H56.3106V29.74C56.3106 30.38 56.1406 30.89 55.8006 31.27C55.4606 31.65 55.0006 31.84 54.4206 31.84H49.8006C49.2206 31.84 48.7606 31.65 48.4206 31.27C48.0806 30.89 47.9106 30.38 47.9106 29.74V7.3C47.9106 6.66 48.0806 6.15 48.4206 5.77C48.7606 5.39 49.2206 5.2 49.8006 5.2H54.4206C55.0006 5.2 55.4606 5.39 55.8006 5.77C56.1406 6.15 56.3106 6.66 56.3106 7.3V14.86H56.5806L59.4906 7.15C59.7106 6.57 60.0506 6.1 60.5106 5.74C60.9906 5.38 61.5206 5.2 62.1006 5.2H67.0206C67.6006 5.2 67.9906 5.38 68.1906 5.74C68.4106 6.1 68.4106 6.57 68.1906 7.15L64.0506 18.28L68.6706 29.92ZM87.1703 29.74C87.1703 30.38 87.0003 30.89 86.6603 31.27C86.3203 31.65 85.8603 31.84 85.2803 31.84H71.4803C70.9003 31.84 70.4403 31.65 70.1003 31.27C69.7603 30.89 69.5903 30.38 69.5903 29.74V7.3C69.5903 6.66 69.7603 6.15 70.1003 5.77C70.4403 5.39 70.9003 5.2 71.4803 5.2H85.2803C85.8603 5.2 86.3203 5.39 86.6603 5.77C87.0003 6.15 87.1703 6.66 87.1703 7.3V10.36C87.1703 11 87.0003 11.49 86.6603 11.83C86.3203 12.15 85.8603 12.36 85.2803 12.46C84.1003 12.68 82.9303 12.78 81.7703 12.76C80.6103 12.74 79.4403 12.64 78.2603 12.46V14.95C80.6003 15.53 82.9403 15.53 85.2803 14.95C85.5603 14.89 85.8103 14.91 86.0303 15.01C86.2703 15.09 86.4703 15.23 86.6303 15.43C86.8103 15.63 86.9403 15.87 87.0203 16.15C87.1203 16.43 87.1703 16.73 87.1703 17.05V19.81C87.1703 20.45 86.9903 20.93 86.6303 21.25C86.2903 21.57 85.8403 21.79 85.2803 21.91C84.0803 22.19 82.9003 22.32 81.7403 22.3C80.6003 22.28 79.4403 22.15 78.2603 21.91V24.58C79.4403 24.86 80.6103 25 81.7703 25C82.9303 25 84.1003 24.86 85.2803 24.58C85.5603 24.52 85.8103 24.54 86.0303 24.64C86.2703 24.72 86.4703 24.86 86.6303 25.06C86.8103 25.26 86.9403 25.5 87.0203 25.78C87.1203 26.06 87.1703 26.36 87.1703 26.68V29.74ZM102.902 29.74C102.902 30.38 102.732 30.89 102.392 31.27C102.052 31.65 101.592 31.84 101.012 31.84H95.552C94.992 31.84 94.532 31.65 94.172 31.27C93.832 30.89 93.662 30.38 93.662 29.74V13.66H90.422C89.862 13.66 89.402 13.47 89.042 13.09C88.702 12.71 88.532 12.2 88.532 11.56V7.3C88.532 6.66 88.702 6.15 89.042 5.77C89.402 5.39 89.862 5.2 90.422 5.2H106.142C106.722 5.2 107.182 5.39 107.522 5.77C107.862 6.15 108.032 6.66 108.032 7.3V11.56C108.032 12.2 107.862 12.71 107.522 13.09C107.182 13.47 106.722 13.66 106.142 13.66H102.902V29.74ZM141.833 29.74C141.833 30.38 141.653 30.89 141.293 31.27C140.953 31.65 140.503 31.84 139.943 31.84H136.643C136.063 31.84 135.603 31.65 135.263 31.27C134.923 30.89 134.753 30.38 134.753 29.74V19.45H134.543L133.103 29.77C133.023 30.39 132.783 30.89 132.383 31.27C132.003 31.65 131.523 31.84 130.943 31.84H127.853C127.273 31.84 126.783 31.65 126.383 31.27C126.003 30.89 125.773 30.39 125.693 29.77L124.283 19.45H124.043V29.74C124.043 30.38 123.873 30.89 123.533 31.27C123.193 31.65 122.733 31.84 122.153 31.84H118.883C118.303 31.84 117.843 31.65 117.503 31.27C117.163 30.89 116.993 30.38 116.993 29.74V7.3C116.993 6.66 117.163 6.15 117.503 5.77C117.843 5.39 118.303 5.2 118.883 5.2H125.813C126.393 5.2 126.873 5.39 127.253 5.77C127.633 6.15 127.853 6.66 127.913 7.3L129.293 21.07H129.503L130.883 7.3C130.963 6.66 131.183 6.15 131.543 5.77C131.923 5.39 132.403 5.2 132.983 5.2H139.943C140.503 5.2 140.953 5.39 141.293 5.77C141.653 6.15 141.833 6.66 141.833 7.3V29.74ZM163.627 25.57C163.627 27.69 163.097 29.29 162.037 30.37C160.997 31.45 159.547 31.99 157.687 31.99H149.737C147.877 31.99 146.417 31.45 145.357 30.37C144.297 29.29 143.767 27.69 143.767 25.57V11.47C143.767 9.35 144.297 7.75 145.357 6.67C146.417 5.59 147.877 5.05 149.737 5.05H157.687C159.547 5.05 160.997 5.59 162.037 6.67C163.097 7.75 163.627 9.35 163.627 11.47V25.57ZM154.687 24.7C155.167 22.74 155.417 20.71 155.437 18.61C155.477 16.49 155.267 14.4 154.807 12.34H152.317C152.777 14.36 152.997 16.43 152.977 18.55C152.957 20.67 152.737 22.72 152.317 24.7H154.687ZM184.978 29.74C184.978 30.38 184.798 30.89 184.438 31.27C184.098 31.65 183.648 31.84 183.088 31.84H179.908C179.348 31.84 178.828 31.66 178.348 31.3C177.868 30.94 177.518 30.47 177.298 29.89L173.368 19.15H173.128V29.74C173.128 30.38 172.958 30.89 172.618 31.27C172.278 31.65 171.818 31.84 171.238 31.84H167.428C166.848 31.84 166.388 31.65 166.048 31.27C165.708 30.89 165.538 30.38 165.538 29.74V7.3C165.538 6.66 165.708 6.15 166.048 5.77C166.388 5.39 166.848 5.2 167.428 5.2H170.578C171.158 5.2 171.678 5.38 172.138 5.74C172.618 6.1 172.968 6.57 173.188 7.15L177.148 17.89H177.358V7.3C177.358 6.66 177.528 6.15 177.868 5.77C178.208 5.39 178.668 5.2 179.248 5.2H183.088C183.648 5.2 184.098 5.39 184.438 5.77C184.798 6.15 184.978 6.66 184.978 7.3V29.74ZM186.892 24.61C186.892 23.97 187.062 23.46 187.402 23.08C187.742 22.7 188.202 22.51 188.782 22.51H193.192C193.652 22.51 194.032 22.67 194.332 22.99C194.652 23.31 194.932 23.85 195.172 24.61C195.312 25.03 195.612 25.26 196.072 25.3H197.302C197.682 25.3 197.942 25.18 198.082 24.94C198.242 24.68 198.322 24.32 198.322 23.86V23.83C198.322 23.51 198.242 23.21 198.082 22.93C197.922 22.65 197.682 22.45 197.362 22.33L190.252 19.36C189.232 18.96 188.412 18.32 187.792 17.44C187.192 16.56 186.892 15.43 186.892 14.05V11.47C186.892 9.35 187.422 7.75 188.482 6.67C189.542 5.59 191.002 5.05 192.862 5.05H200.512C202.392 5.05 203.852 5.59 204.892 6.67C205.952 7.75 206.482 9.35 206.482 11.47V12.73C206.482 13.37 206.312 13.88 205.972 14.26C205.632 14.64 205.172 14.83 204.592 14.83H200.212C199.112 14.83 198.472 14.13 198.292 12.73C198.192 12.07 197.862 11.74 197.302 11.74H196.072C195.712 11.74 195.452 11.87 195.292 12.13C195.152 12.37 195.082 12.72 195.082 13.18V13.21C195.082 14.19 195.452 14.81 196.192 15.07L203.122 17.68C203.662 17.88 204.132 18.16 204.532 18.52C204.952 18.86 205.302 19.25 205.582 19.69C205.882 20.13 206.102 20.61 206.242 21.13C206.382 21.63 206.452 22.13 206.452 22.63L206.482 25.57C206.482 27.69 205.952 29.29 204.892 30.37C203.852 31.45 202.392 31.99 200.512 31.99H192.862C191.002 31.99 189.542 31.45 188.482 30.37C187.422 29.29 186.892 27.69 186.892 25.57V24.61ZM222.199 29.74C222.199 30.38 222.029 30.89 221.689 31.27C221.349 31.65 220.889 31.84 220.309 31.84H214.849C214.289 31.84 213.829 31.65 213.469 31.27C213.129 30.89 212.959 30.38 212.959 29.74V13.66H209.719C209.159 13.66 208.699 13.47 208.339 13.09C207.999 12.71 207.829 12.2 207.829 11.56V7.3C207.829 6.66 207.999 6.15 208.339 5.77C208.699 5.39 209.159 5.2 209.719 5.2H225.439C226.019 5.2 226.479 5.39 226.819 5.77C227.159 6.15 227.329 6.66 227.329 7.3V11.56C227.329 12.2 227.159 12.71 226.819 13.09C226.479 13.47 226.019 13.66 225.439 13.66H222.199V29.74ZM246.37 29.74C246.37 30.38 246.2 30.89 245.86 31.27C245.52 31.65 245.06 31.84 244.48 31.84H230.68C230.1 31.84 229.64 31.65 229.3 31.27C228.96 30.89 228.79 30.38 228.79 29.74V7.3C228.79 6.66 228.96 6.15 229.3 5.77C229.64 5.39 230.1 5.2 230.68 5.2H244.48C245.06 5.2 245.52 5.39 245.86 5.77C246.2 6.15 246.37 6.66 246.37 7.3V10.36C246.37 11 246.2 11.49 245.86 11.83C245.52 12.15 245.06 12.36 244.48 12.46C243.3 12.68 242.13 12.78 240.97 12.76C239.81 12.74 238.64 12.64 237.46 12.46V14.95C239.8 15.53 242.14 15.53 244.48 14.95C244.76 14.89 245.01 14.91 245.23 15.01C245.47 15.09 245.67 15.23 245.83 15.43C246.01 15.63 246.14 15.87 246.22 16.15C246.32 16.43 246.37 16.73 246.37 17.05V19.81C246.37 20.45 246.19 20.93 245.83 21.25C245.49 21.57 245.04 21.79 244.48 21.91C243.28 22.19 242.1 22.32 240.94 22.3C239.8 22.28 238.64 22.15 237.46 21.91V24.58C238.64 24.86 239.81 25 240.97 25C242.13 25 243.3 24.86 244.48 24.58C244.76 24.52 245.01 24.54 245.23 24.64C245.47 24.72 245.67 24.86 245.83 25.06C246.01 25.26 246.14 25.5 246.22 25.78C246.32 26.06 246.37 26.36 246.37 26.68V29.74ZM267.801 29.8C267.941 30.42 267.881 30.91 267.621 31.27C267.361 31.65 266.941 31.84 266.361 31.84H261.711C261.131 31.84 260.631 31.65 260.211 31.27C259.791 30.91 259.521 30.42 259.401 29.8L258.051 23.53H256.431V29.74C256.431 30.38 256.261 30.89 255.921 31.27C255.581 31.65 255.121 31.84 254.541 31.84H250.191C249.611 31.84 249.151 31.65 248.811 31.27C248.471 30.89 248.301 30.38 248.301 29.74V7.3C248.301 6.66 248.471 6.15 248.811 5.77C249.151 5.39 249.611 5.2 250.191 5.2H261.801C263.681 5.2 265.141 5.74 266.181 6.82C267.241 7.9 267.771 9.5 267.771 11.62V17.11C267.771 19.21 267.231 20.81 266.151 21.91L267.801 29.8ZM258.651 16.6C259.031 16.6 259.331 16.57 259.551 16.51C259.791 16.45 259.941 16.3 260.001 16.06C260.121 15.6 260.181 15.08 260.181 14.5C260.181 13.92 260.121 13.43 260.001 13.03C259.841 12.47 259.391 12.19 258.651 12.19H256.341C256.481 12.81 256.551 13.55 256.551 14.41C256.551 15.25 256.481 15.98 256.341 16.6H258.651Z"/>
</mask>
<path d="M13.15 29.74C13.15 30.38 12.98 30.89 12.64 31.27C12.3 31.65 11.84 31.84 11.26 31.84H6.91C6.33 31.84 5.87 31.65 5.53 31.27C5.19 30.89 5.02 30.38 5.02 29.74V7.3C5.02 6.66 5.19 6.15 5.53 5.77C5.87 5.39 6.33 5.2 6.91 5.2H18.52C20.4 5.2 21.86 5.74 22.9 6.82C23.96 7.9 24.49 9.5 24.49 11.62V18.01C24.49 20.13 23.96 21.73 22.9 22.81C21.86 23.89 20.4 24.43 18.52 24.43H13.15V29.74ZM15.52 17.2C15.9 17.2 16.2 17.17 16.42 17.11C16.66 17.05 16.81 16.9 16.87 16.66C17.01 16.14 17.08 15.58 17.08 14.98C17.08 14.36 17.01 13.81 16.87 13.33C16.77 13.01 16.61 12.79 16.39 12.67C16.19 12.55 15.9 12.49 15.52 12.49H13.21C13.35 13.19 13.41 13.98 13.39 14.86C13.39 15.72 13.33 16.5 13.21 17.2H15.52ZM46.0002 25.57C46.0002 27.69 45.4702 29.29 44.4102 30.37C43.3702 31.45 41.9202 31.99 40.0602 31.99H32.1102C30.2502 31.99 28.7902 31.45 27.7302 30.37C26.6702 29.29 26.1402 27.69 26.1402 25.57V11.47C26.1402 9.35 26.6702 7.75 27.7302 6.67C28.7902 5.59 30.2502 5.05 32.1102 5.05H40.0602C41.9202 5.05 43.3702 5.59 44.4102 6.67C45.4702 7.75 46.0002 9.35 46.0002 11.47V25.57ZM37.0602 24.7C37.5402 22.74 37.7902 20.71 37.8102 18.61C37.8502 16.49 37.6402 14.4 37.1802 12.34H34.6902C35.1502 14.36 35.3702 16.43 35.3502 18.55C35.3302 20.67 35.1102 22.72 34.6902 24.7H37.0602ZM68.6706 29.92C68.9106 30.5 68.9306 30.96 68.7306 31.3C68.5306 31.66 68.1406 31.84 67.5606 31.84H62.6406C62.0606 31.84 61.5206 31.67 61.0206 31.33C60.5406 30.99 60.1806 30.53 59.9406 29.95L56.5806 22.18H56.3106V29.74C56.3106 30.38 56.1406 30.89 55.8006 31.27C55.4606 31.65 55.0006 31.84 54.4206 31.84H49.8006C49.2206 31.84 48.7606 31.65 48.4206 31.27C48.0806 30.89 47.9106 30.38 47.9106 29.74V7.3C47.9106 6.66 48.0806 6.15 48.4206 5.77C48.7606 5.39 49.2206 5.2 49.8006 5.2H54.4206C55.0006 5.2 55.4606 5.39 55.8006 5.77C56.1406 6.15 56.3106 6.66 56.3106 7.3V14.86H56.5806L59.4906 7.15C59.7106 6.57 60.0506 6.1 60.5106 5.74C60.9906 5.38 61.5206 5.2 62.1006 5.2H67.0206C67.6006 5.2 67.9906 5.38 68.1906 5.74C68.4106 6.1 68.4106 6.57 68.1906 7.15L64.0506 18.28L68.6706 29.92ZM87.1703 29.74C87.1703 30.38 87.0003 30.89 86.6603 31.27C86.3203 31.65 85.8603 31.84 85.2803 31.84H71.4803C70.9003 31.84 70.4403 31.65 70.1003 31.27C69.7603 30.89 69.5903 30.38 69.5903 29.74V7.3C69.5903 6.66 69.7603 6.15 70.1003 5.77C70.4403 5.39 70.9003 5.2 71.4803 5.2H85.2803C85.8603 5.2 86.3203 5.39 86.6603 5.77C87.0003 6.15 87.1703 6.66 87.1703 7.3V10.36C87.1703 11 87.0003 11.49 86.6603 11.83C86.3203 12.15 85.8603 12.36 85.2803 12.46C84.1003 12.68 82.9303 12.78 81.7703 12.76C80.6103 12.74 79.4403 12.64 78.2603 12.46V14.95C80.6003 15.53 82.9403 15.53 85.2803 14.95C85.5603 14.89 85.8103 14.91 86.0303 15.01C86.2703 15.09 86.4703 15.23 86.6303 15.43C86.8103 15.63 86.9403 15.87 87.0203 16.15C87.1203 16.43 87.1703 16.73 87.1703 17.05V19.81C87.1703 20.45 86.9903 20.93 86.6303 21.25C86.2903 21.57 85.8403 21.79 85.2803 21.91C84.0803 22.19 82.9003 22.32 81.7403 22.3C80.6003 22.28 79.4403 22.15 78.2603 21.91V24.58C79.4403 24.86 80.6103 25 81.7703 25C82.9303 25 84.1003 24.86 85.2803 24.58C85.5603 24.52 85.8103 24.54 86.0303 24.64C86.2703 24.72 86.4703 24.86 86.6303 25.06C86.8103 25.26 86.9403 25.5 87.0203 25.78C87.1203 26.06 87.1703 26.36 87.1703 26.68V29.74ZM102.902 29.74C102.902 30.38 102.732 30.89 102.392 31.27C102.052 31.65 101.592 31.84 101.012 31.84H95.552C94.992 31.84 94.532 31.65 94.172 31.27C93.832 30.89 93.662 30.38 93.662 29.74V13.66H90.422C89.862 13.66 89.402 13.47 89.042 13.09C88.702 12.71 88.532 12.2 88.532 11.56V7.3C88.532 6.66 88.702 6.15 89.042 5.77C89.402 5.39 89.862 5.2 90.422 5.2H106.142C106.722 5.2 107.182 5.39 107.522 5.77C107.862 6.15 108.032 6.66 108.032 7.3V11.56C108.032 12.2 107.862 12.71 107.522 13.09C107.182 13.47 106.722 13.66 106.142 13.66H102.902V29.74ZM141.833 29.74C141.833 30.38 141.653 30.89 141.293 31.27C140.953 31.65 140.503 31.84 139.943 31.84H136.643C136.063 31.84 135.603 31.65 135.263 31.27C134.923 30.89 134.753 30.38 134.753 29.74V19.45H134.543L133.103 29.77C133.023 30.39 132.783 30.89 132.383 31.27C132.003 31.65 131.523 31.84 130.943 31.84H127.853C127.273 31.84 126.783 31.65 126.383 31.27C126.003 30.89 125.773 30.39 125.693 29.77L124.283 19.45H124.043V29.74C124.043 30.38 123.873 30.89 123.533 31.27C123.193 31.65 122.733 31.84 122.153 31.84H118.883C118.303 31.84 117.843 31.65 117.503 31.27C117.163 30.89 116.993 30.38 116.993 29.74V7.3C116.993 6.66 117.163 6.15 117.503 5.77C117.843 5.39 118.303 5.2 118.883 5.2H125.813C126.393 5.2 126.873 5.39 127.253 5.77C127.633 6.15 127.853 6.66 127.913 7.3L129.293 21.07H129.503L130.883 7.3C130.963 6.66 131.183 6.15 131.543 5.77C131.923 5.39 132.403 5.2 132.983 5.2H139.943C140.503 5.2 140.953 5.39 141.293 5.77C141.653 6.15 141.833 6.66 141.833 7.3V29.74ZM163.627 25.57C163.627 27.69 163.097 29.29 162.037 30.37C160.997 31.45 159.547 31.99 157.687 31.99H149.737C147.877 31.99 146.417 31.45 145.357 30.37C144.297 29.29 143.767 27.69 143.767 25.57V11.47C143.767 9.35 144.297 7.75 145.357 6.67C146.417 5.59 147.877 5.05 149.737 5.05H157.687C159.547 5.05 160.997 5.59 162.037 6.67C163.097 7.75 163.627 9.35 163.627 11.47V25.57ZM154.687 24.7C155.167 22.74 155.417 20.71 155.437 18.61C155.477 16.49 155.267 14.4 154.807 12.34H152.317C152.777 14.36 152.997 16.43 152.977 18.55C152.957 20.67 152.737 22.72 152.317 24.7H154.687ZM184.978 29.74C184.978 30.38 184.798 30.89 184.438 31.27C184.098 31.65 183.648 31.84 183.088 31.84H179.908C179.348 31.84 178.828 31.66 178.348 31.3C177.868 30.94 177.518 30.47 177.298 29.89L173.368 19.15H173.128V29.74C173.128 30.38 172.958 30.89 172.618 31.27C172.278 31.65 171.818 31.84 171.238 31.84H167.428C166.848 31.84 166.388 31.65 166.048 31.27C165.708 30.89 165.538 30.38 165.538 29.74V7.3C165.538 6.66 165.708 6.15 166.048 5.77C166.388 5.39 166.848 5.2 167.428 5.2H170.578C171.158 5.2 171.678 5.38 172.138 5.74C172.618 6.1 172.968 6.57 173.188 7.15L177.148 17.89H177.358V7.3C177.358 6.66 177.528 6.15 177.868 5.77C178.208 5.39 178.668 5.2 179.248 5.2H183.088C183.648 5.2 184.098 5.39 184.438 5.77C184.798 6.15 184.978 6.66 184.978 7.3V29.74ZM186.892 24.61C186.892 23.97 187.062 23.46 187.402 23.08C187.742 22.7 188.202 22.51 188.782 22.51H193.192C193.652 22.51 194.032 22.67 194.332 22.99C194.652 23.31 194.932 23.85 195.172 24.61C195.312 25.03 195.612 25.26 196.072 25.3H197.302C197.682 25.3 197.942 25.18 198.082 24.94C198.242 24.68 198.322 24.32 198.322 23.86V23.83C198.322 23.51 198.242 23.21 198.082 22.93C197.922 22.65 197.682 22.45 197.362 22.33L190.252 19.36C189.232 18.96 188.412 18.32 187.792 17.44C187.192 16.56 186.892 15.43 186.892 14.05V11.47C186.892 9.35 187.422 7.75 188.482 6.67C189.542 5.59 191.002 5.05 192.862 5.05H200.512C202.392 5.05 203.852 5.59 204.892 6.67C205.952 7.75 206.482 9.35 206.482 11.47V12.73C206.482 13.37 206.312 13.88 205.972 14.26C205.632 14.64 205.172 14.83 204.592 14.83H200.212C199.112 14.83 198.472 14.13 198.292 12.73C198.192 12.07 197.862 11.74 197.302 11.74H196.072C195.712 11.74 195.452 11.87 195.292 12.13C195.152 12.37 195.082 12.72 195.082 13.18V13.21C195.082 14.19 195.452 14.81 196.192 15.07L203.122 17.68C203.662 17.88 204.132 18.16 204.532 18.52C204.952 18.86 205.302 19.25 205.582 19.69C205.882 20.13 206.102 20.61 206.242 21.13C206.382 21.63 206.452 22.13 206.452 22.63L206.482 25.57C206.482 27.69 205.952 29.29 204.892 30.37C203.852 31.45 202.392 31.99 200.512 31.99H192.862C191.002 31.99 189.542 31.45 188.482 30.37C187.422 29.29 186.892 27.69 186.892 25.57V24.61ZM222.199 29.74C222.199 30.38 222.029 30.89 221.689 31.27C221.349 31.65 220.889 31.84 220.309 31.84H214.849C214.289 31.84 213.829 31.65 213.469 31.27C213.129 30.89 212.959 30.38 212.959 29.74V13.66H209.719C209.159 13.66 208.699 13.47 208.339 13.09C207.999 12.71 207.829 12.2 207.829 11.56V7.3C207.829 6.66 207.999 6.15 208.339 5.77C208.699 5.39 209.159 5.2 209.719 5.2H225.439C226.019 5.2 226.479 5.39 226.819 5.77C227.159 6.15 227.329 6.66 227.329 7.3V11.56C227.329 12.2 227.159 12.71 226.819 13.09C226.479 13.47 226.019 13.66 225.439 13.66H222.199V29.74ZM246.37 29.74C246.37 30.38 246.2 30.89 245.86 31.27C245.52 31.65 245.06 31.84 244.48 31.84H230.68C230.1 31.84 229.64 31.65 229.3 31.27C228.96 30.89 228.79 30.38 228.79 29.74V7.3C228.79 6.66 228.96 6.15 229.3 5.77C229.64 5.39 230.1 5.2 230.68 5.2H244.48C245.06 5.2 245.52 5.39 245.86 5.77C246.2 6.15 246.37 6.66 246.37 7.3V10.36C246.37 11 246.2 11.49 245.86 11.83C245.52 12.15 245.06 12.36 244.48 12.46C243.3 12.68 242.13 12.78 240.97 12.76C239.81 12.74 238.64 12.64 237.46 12.46V14.95C239.8 15.53 242.14 15.53 244.48 14.95C244.76 14.89 245.01 14.91 245.23 15.01C245.47 15.09 245.67 15.23 245.83 15.43C246.01 15.63 246.14 15.87 246.22 16.15C246.32 16.43 246.37 16.73 246.37 17.05V19.81C246.37 20.45 246.19 20.93 245.83 21.25C245.49 21.57 245.04 21.79 244.48 21.91C243.28 22.19 242.1 22.32 240.94 22.3C239.8 22.28 238.64 22.15 237.46 21.91V24.58C238.64 24.86 239.81 25 240.97 25C242.13 25 243.3 24.86 244.48 24.58C244.76 24.52 245.01 24.54 245.23 24.64C245.47 24.72 245.67 24.86 245.83 25.06C246.01 25.26 246.14 25.5 246.22 25.78C246.32 26.06 246.37 26.36 246.37 26.68V29.74ZM267.801 29.8C267.941 30.42 267.881 30.91 267.621 31.27C267.361 31.65 266.941 31.84 266.361 31.84H261.711C261.131 31.84 260.631 31.65 260.211 31.27C259.791 30.91 259.521 30.42 259.401 29.8L258.051 23.53H256.431V29.74C256.431 30.38 256.261 30.89 255.921 31.27C255.581 31.65 255.121 31.84 254.541 31.84H250.191C249.611 31.84 249.151 31.65 248.811 31.27C248.471 30.89 248.301 30.38 248.301 29.74V7.3C248.301 6.66 248.471 6.15 248.811 5.77C249.151 5.39 249.611 5.2 250.191 5.2H261.801C263.681 5.2 265.141 5.74 266.181 6.82C267.241 7.9 267.771 9.5 267.771 11.62V17.11C267.771 19.21 267.231 20.81 266.151 21.91L267.801 29.8ZM258.651 16.6C259.031 16.6 259.331 16.57 259.551 16.51C259.791 16.45 259.941 16.3 260.001 16.06C260.121 15.6 260.181 15.08 260.181 14.5C260.181 13.92 260.121 13.43 260.001 13.03C259.841 12.47 259.391 12.19 258.651 12.19H256.341C256.481 12.81 256.551 13.55 256.551 14.41C256.551 15.25 256.481 15.98 256.341 16.6H258.651Z" fill="url(#paint0_linear_2_2)"/>
<path d="M22.9 6.82L19.2984 10.2882L19.3149 10.3054L19.3316 10.3223L22.9 6.82ZM22.9 22.81L19.3316 19.3077L19.3149 19.3246L19.2984 19.3418L22.9 22.81ZM13.15 24.43V19.43H8.15V24.43H13.15ZM16.42 17.11L15.2073 12.2593L15.1557 12.2722L15.1044 12.2862L16.42 17.11ZM16.87 16.66L12.0419 15.3601L12.0302 15.4036L12.0193 15.4473L16.87 16.66ZM16.87 13.33L21.67 11.93L21.6566 11.8842L21.6424 11.8386L16.87 13.33ZM16.39 12.67L13.8175 16.9575L13.9056 17.0103L13.9957 17.0595L16.39 12.67ZM13.21 12.49V7.49H7.11098L8.3071 13.4706L13.21 12.49ZM13.39 14.86L8.39129 14.7464L8.39 14.8032V14.86H13.39ZM13.21 17.2L8.28189 16.3552L7.27992 22.2H13.21V17.2ZM13.15 29.74H8.15C8.15 29.622 8.16531 29.3627 8.27908 29.0214C8.39802 28.6646 8.60412 28.2821 8.91379 27.936L12.64 31.27L16.3662 34.604C17.7204 33.0905 18.15 31.2846 18.15 29.74H13.15ZM12.64 31.27L8.91379 27.936C9.23241 27.5799 9.64893 27.2754 10.1312 27.0762C10.5981 26.8834 11.002 26.84 11.26 26.84V31.84V36.84C13.0459 36.84 14.9422 36.1955 16.3662 34.604L12.64 31.27ZM11.26 31.84V26.84H6.91V31.84V36.84H11.26V31.84ZM6.91 31.84V26.84C7.16803 26.84 7.57194 26.8834 8.0388 27.0762C8.52107 27.2754 8.93759 27.5799 9.25621 27.936L5.53 31.27L1.80379 34.604C3.22778 36.1955 5.12415 36.84 6.91 36.84V31.84ZM5.53 31.27L9.25621 27.936C9.56588 28.2821 9.77198 28.6646 9.89092 29.0214C10.0047 29.3627 10.02 29.622 10.02 29.74H5.02H0.02C0.02 31.2846 0.449625 33.0905 1.80379 34.604L5.53 31.27ZM5.02 29.74H10.02V7.3H5.02H0.02V29.74H5.02ZM5.02 7.3H10.02C10.02 7.41796 10.0047 7.67732 9.89092 8.01864C9.77198 8.37543 9.56588 8.75787 9.25621 9.10397L5.53 5.77L1.80379 2.43602C0.449625 3.94951 0.02 5.75544 0.02 7.3H5.02ZM5.53 5.77L9.25621 9.10397C8.93759 9.46007 8.52107 9.76461 8.0388 9.96381C7.57194 10.1566 7.16803 10.2 6.91 10.2V5.2V0.199998C5.12415 0.199998 3.22779 0.844504 1.80379 2.43602L5.53 5.77ZM6.91 5.2V10.2H18.52V5.2V0.199998H6.91V5.2ZM18.52 5.2V10.2C18.9874 10.2 19.2177 10.2676 19.2905 10.2945C19.3419 10.3135 19.321 10.3117 19.2984 10.2882L22.9 6.82L26.5016 3.35179C24.2921 1.05735 21.3926 0.199998 18.52 0.199998V5.2ZM22.9 6.82L19.3316 10.3223C19.2684 10.258 19.2936 10.2437 19.3461 10.4022C19.4063 10.5838 19.49 10.9628 19.49 11.62H24.49H29.49C29.49 8.72146 28.7609 5.65335 26.4684 3.31766L22.9 6.82ZM24.49 11.62H19.49V18.01H24.49H29.49V11.62H24.49ZM24.49 18.01H19.49C19.49 18.6672 19.4063 19.0462 19.3461 19.2278C19.2936 19.3863 19.2684 19.372 19.3316 19.3077L22.9 22.81L26.4684 26.3123C28.7609 23.9766 29.49 20.9085 29.49 18.01H24.49ZM22.9 22.81L19.2984 19.3418C19.321 19.3183 19.3419 19.3165 19.2905 19.3355C19.2177 19.3624 18.9874 19.43 18.52 19.43V24.43V29.43C21.3926 29.43 24.2921 28.5726 26.5016 26.2782L22.9 22.81ZM18.52 24.43V19.43H13.15V24.43V29.43H18.52V24.43ZM13.15 24.43H8.15V29.74H13.15H18.15V24.43H13.15ZM15.52 17.2V22.2C16.0913 22.2 16.8969 22.1626 17.7356 21.9338L16.42 17.11L15.1044 12.2862C15.332 12.2241 15.4885 12.2067 15.5325 12.2023C15.5838 12.1972 15.5844 12.2 15.52 12.2V17.2ZM16.42 17.11L17.6327 21.9607C18.4838 21.7479 19.4323 21.3038 20.248 20.488C21.0638 19.6723 21.5079 18.7238 21.7207 17.8727L16.87 16.66L12.0193 15.4473C12.1721 14.8362 12.5112 14.0827 13.177 13.417C13.8427 12.7512 14.5962 12.4121 15.2073 12.2593L16.42 17.11ZM16.87 16.66L21.6981 17.9599C21.9643 16.9709 22.08 15.9696 22.08 14.98H17.08H12.08C12.08 15.1904 12.0557 15.3091 12.0419 15.3601L16.87 16.66ZM17.08 14.98H22.08C22.08 13.9948 21.97 12.9585 21.67 11.93L16.87 13.33L12.07 14.73C12.05 14.6615 12.08 14.7252 12.08 14.98H17.08ZM16.87 13.33L21.6424 11.8386C21.2897 10.71 20.4845 9.20795 18.7843 8.28053L16.39 12.67L13.9957 17.0595C12.7355 16.372 12.2503 15.31 12.0976 14.8214L16.87 13.33ZM16.39 12.67L18.9625 8.38253C17.6399 7.58901 16.294 7.49 15.52 7.49V12.49V17.49C15.46 17.49 15.2759 17.4864 15.0095 17.4313C14.7457 17.3767 14.3095 17.2526 13.8175 16.9575L16.39 12.67ZM15.52 12.49V7.49H13.21V12.49V17.49H15.52V12.49ZM13.21 12.49L8.3071 13.4706C8.3607 13.7386 8.4048 14.1522 8.39129 14.7464L13.39 14.86L18.3887 14.9736C18.4152 13.8078 18.3393 12.6414 18.1129 11.5094L13.21 12.49ZM13.39 14.86H8.39C8.39 15.4938 8.34531 15.9852 8.28189 16.3552L13.21 17.2L18.1381 18.0448C18.3147 17.0148 18.39 15.9462 18.39 14.86H13.39ZM13.21 17.2V22.2H15.52V17.2V12.2H13.21V17.2ZM44.4102 30.37L40.8418 26.8677L40.8251 26.8846L40.8086 26.9018L44.4102 30.37ZM27.7302 30.37L24.1618 33.8723L27.7302 30.37ZM44.4102 6.67L40.8086 10.1382L40.8251 10.1554L40.8418 10.1723L44.4102 6.67ZM37.0602 24.7V29.7H40.9835L41.9167 25.8893L37.0602 24.7ZM37.8102 18.61L32.8111 18.5157L32.8107 18.539L32.8105 18.5624L37.8102 18.61ZM37.1802 12.34L42.0601 11.2503L41.1869 7.34H37.1802V12.34ZM34.6902 12.34V7.34H28.4236L29.815 13.4502L34.6902 12.34ZM35.3502 18.55L30.3505 18.5028V18.5028L35.3502 18.55ZM34.6902 24.7L29.7991 23.6625L28.5184 29.7H34.6902V24.7ZM46.0002 25.57H41.0002C41.0002 26.2272 40.9165 26.6062 40.8564 26.7878C40.8039 26.9463 40.7786 26.932 40.8418 26.8677L44.4102 30.37L47.9787 33.8723C50.2711 31.5366 51.0002 28.4685 51.0002 25.57H46.0002ZM44.4102 30.37L40.8086 26.9018C40.8081 26.9024 40.81 26.9004 40.8142 26.8969C40.8185 26.8934 40.8229 26.8901 40.8266 26.8877C40.836 26.8816 40.8302 26.8873 40.7977 26.8994C40.7312 26.9242 40.5116 26.99 40.0602 26.99V31.99V36.99C42.9308 36.99 45.8124 36.1222 48.0118 33.8382L44.4102 30.37ZM40.0602 31.99V26.99H32.1102V31.99V36.99H40.0602V31.99ZM32.1102 31.99V26.99C31.6598 26.99 31.433 26.9244 31.3547 26.8955C31.3345 26.888 31.3215 26.882 31.3144 26.8785C31.3073 26.875 31.3043 26.873 31.304 26.8729C31.3038 26.8727 31.3038 26.8727 31.3041 26.8729C31.3042 26.873 31.3043 26.873 31.3044 26.8731C31.3044 26.8732 31.3045 26.8732 31.3045 26.8732C31.3045 26.8732 31.3044 26.8731 31.3042 26.873C31.304 26.8728 31.3037 26.8725 31.3032 26.8721C31.3024 26.8713 31.3009 26.8699 31.2987 26.8677L27.7302 30.37L24.1618 33.8723C26.3691 36.1213 29.2356 36.99 32.1102 36.99V31.99ZM27.7302 30.37L31.2987 26.8677C31.3618 26.932 31.3366 26.9463 31.2841 26.7878C31.224 26.6062 31.1402 26.2272 31.1402 25.57H26.1402H21.1402C21.1402 28.4685 21.8694 31.5366 24.1618 33.8723L27.7302 30.37ZM26.1402 25.57H31.1402V11.47H26.1402H21.1402V25.57H26.1402ZM26.1402 11.47H31.1402C31.1402 10.8128 31.224 10.4338 31.2841 10.2522C31.3366 10.0937 31.3618 10.108 31.2987 10.1723L27.7302 6.67L24.1618 3.16766C21.8694 5.50335 21.1402 8.57146 21.1402 11.47H26.1402ZM27.7302 6.67L31.2987 10.1723C31.3009 10.1701 31.3024 10.1687 31.3032 10.1679C31.3037 10.1675 31.304 10.1672 31.3042 10.167C31.3044 10.1669 31.3045 10.1668 31.3045 10.1668C31.3045 10.1668 31.3044 10.1668 31.3044 10.1669C31.3043 10.167 31.3042 10.167 31.3041 10.1671C31.3038 10.1673 31.3038 10.1673 31.304 10.1671C31.3043 10.167 31.3073 10.165 31.3144 10.1615C31.3215 10.158 31.3345 10.152 31.3547 10.1445C31.433 10.1155 31.6598 10.05 32.1102 10.05V5.05V0.0499988C29.2356 0.0499988 26.3691 0.91873 24.1618 3.16766L27.7302 6.67ZM32.1102 5.05V10.05H40.0602V5.05V0.0499988H32.1102V5.05ZM40.0602 5.05V10.05C40.5116 10.05 40.7312 10.1158 40.7977 10.1406C40.8302 10.1527 40.836 10.1584 40.8266 10.1523C40.8229 10.1499 40.8185 10.1466 40.8142 10.1431C40.81 10.1396 40.8081 10.1376 40.8086 10.1382L44.4102 6.67L48.0118 3.20179C45.8124 0.917755 42.9308 0.0499988 40.0602 0.0499988V5.05ZM44.4102 6.67L40.8418 10.1723C40.7786 10.108 40.8039 10.0937 40.8564 10.2522C40.9165 10.4338 41.0002 10.8128 41.0002 11.47H46.0002H51.0002C51.0002 8.57146 50.2711 5.50335 47.9787 3.16766L44.4102 6.67ZM46.0002 11.47H41.0002V25.57H46.0002H51.0002V11.47H46.0002ZM37.0602 24.7L41.9167 25.8893C42.4919 23.5406 42.7865 21.1268 42.81 18.6576L37.8102 18.61L32.8105 18.5624C32.794 20.2932 32.5886 21.9394 32.2037 23.5107L37.0602 24.7ZM37.8102 18.61L42.8093 18.7043C42.8568 16.1882 42.6072 13.7006 42.0601 11.2503L37.1802 12.34L32.3004 13.4297C32.6733 15.0994 32.8437 16.7918 32.8111 18.5157L37.8102 18.61ZM37.1802 12.34V7.34H34.6902V12.34V17.34H37.1802V12.34ZM34.6902 12.34L29.815 13.4502C30.1866 15.0818 30.3669 16.763 30.3505 18.5028L35.3502 18.55L40.35 18.5972C40.3736 16.097 40.1139 13.6382 39.5654 11.2298L34.6902 12.34ZM35.3502 18.55L30.3505 18.5028C30.3335 20.3056 30.1468 22.0232 29.7991 23.6625L34.6902 24.7L39.5814 25.7375C40.0737 23.4168 40.327 21.0344 40.35 18.5972L35.3502 18.55ZM34.6902 24.7V29.7H37.0602V24.7V19.7H34.6902V24.7ZM68.6706 29.92L64.0233 31.7646L64.0367 31.7983L64.0505 31.8318L68.6706 29.92ZM68.7306 31.3L64.421 28.7649L64.3897 28.818L64.3598 28.8718L68.7306 31.3ZM61.0206 31.33L58.1305 35.4101L58.1695 35.4378L58.2091 35.4646L61.0206 31.33ZM59.9406 29.95L64.5607 28.0382L64.5456 28.0017L64.5299 27.9654L59.9406 29.95ZM56.5806 22.18L61.1699 20.1954L59.8659 17.18H56.5806V22.18ZM56.3106 22.18V17.18H51.3106V22.18H56.3106ZM55.8006 31.27L59.5268 34.604L59.5268 34.604L55.8006 31.27ZM55.8006 5.77L59.5268 2.43602L59.5268 2.43602L55.8006 5.77ZM56.3106 14.86H51.3106V19.86H56.3106V14.86ZM56.5806 14.86V19.86H60.0378L61.2585 16.6256L56.5806 14.86ZM59.4906 7.15L54.8156 5.37672L54.8127 5.38441L59.4906 7.15ZM60.5106 5.74L57.5106 1.74L57.4695 1.77082L57.4291 1.80247L60.5106 5.74ZM68.1906 5.74L63.8198 8.16821L63.8702 8.25881L63.9242 8.34724L68.1906 5.74ZM68.1906 7.15L63.5156 5.37673L63.5099 5.39177L63.5043 5.40685L68.1906 7.15ZM64.0506 18.28L59.3643 16.5368L58.6943 18.3382L59.4033 20.1246L64.0506 18.28ZM68.6706 29.92L64.0505 31.8318C64.049 31.8281 63.4481 30.4188 64.421 28.7649L68.7306 31.3L73.0403 33.8351C74.4132 31.5012 73.7722 29.1719 73.2907 28.0082L68.6706 29.92ZM68.7306 31.3L64.3598 28.8718C64.7983 28.0826 65.4687 27.4994 66.1928 27.1652C66.8424 26.8654 67.3671 26.84 67.5606 26.84V31.84V36.84C69.1236 36.84 71.6782 36.2901 73.1014 33.7282L68.7306 31.3ZM67.5606 31.84V26.84H62.6406V31.84V36.84H67.5606V31.84ZM62.6406 31.84V26.84C62.8473 26.84 63.0744 26.8716 63.3021 26.9433C63.528 27.0144 63.7062 27.1097 63.8322 27.1954L61.0206 31.33L58.2091 35.4646C59.501 36.3431 61.0137 36.84 62.6406 36.84V31.84ZM61.0206 31.33L63.9107 27.2499C64.0636 27.3582 64.2072 27.4939 64.3282 27.6485C64.4477 27.8012 64.5202 27.9403 64.5607 28.0382L59.9406 29.95L55.3205 31.8618C55.8959 33.2522 56.8287 34.488 58.1305 35.4101L61.0206 31.33ZM59.9406 29.95L64.5299 27.9654L61.1699 20.1954L56.5806 22.18L51.9913 24.1646L55.3513 31.9346L59.9406 29.95ZM56.5806 22.18V17.18H56.3106V22.18V27.18H56.5806V22.18ZM56.3106 22.18H51.3106V29.74H56.3106H61.3106V22.18H56.3106ZM56.3106 29.74H51.3106C51.3106 29.622 51.3259 29.3627 51.4397 29.0214C51.5586 28.6646 51.7647 28.2821 52.0744 27.936L55.8006 31.27L59.5268 34.604C60.881 33.0905 61.3106 31.2846 61.3106 29.74H56.3106ZM55.8006 31.27L52.0744 27.936C52.393 27.5799 52.8096 27.2754 53.2918 27.0762C53.7587 26.8834 54.1626 26.84 54.4206 26.84V31.84V36.84C56.2065 36.84 58.1028 36.1955 59.5268 34.604L55.8006 31.27ZM54.4206 31.84V26.84H49.8006V31.84V36.84H54.4206V31.84ZM49.8006 31.84V26.84C50.0587 26.84 50.4626 26.8834 50.9294 27.0762C51.4117 27.2754 51.8282 27.5799 52.1468 27.936L48.4206 31.27L44.6944 34.604C46.1184 36.1955 48.0148 36.84 49.8006 36.84V31.84ZM48.4206 31.27L52.1468 27.936C52.4565 28.2821 52.6626 28.6646 52.7815 29.0214C52.8953 29.3627 52.9106 29.622 52.9106 29.74H47.9106H42.9106C42.9106 31.2846 43.3402 33.0905 44.6944 34.604L48.4206 31.27ZM47.9106 29.74H52.9106V7.3H47.9106H42.9106V29.74H47.9106ZM47.9106 7.3H52.9106C52.9106 7.41796 52.8953 7.67732 52.7815 8.01864C52.6626 8.37543 52.4565 8.75787 52.1468 9.10397L48.4206 5.77L44.6944 2.43602C43.3402 3.94951 42.9106 5.75544 42.9106 7.3H47.9106ZM48.4206 5.77L52.1468 9.10397C51.8282 9.46007 51.4117 9.76461 50.9294 9.96381C50.4626 10.1566 50.0587 10.2 49.8006 10.2V5.2V0.199998C48.0148 0.199998 46.1184 0.844504 44.6944 2.43602L48.4206 5.77ZM49.8006 5.2V10.2H54.4206V5.2V0.199998H49.8006V5.2ZM54.4206 5.2V10.2C54.1626 10.2 53.7587 10.1566 53.2918 9.96381C52.8096 9.76461 52.393 9.46007 52.0744 9.10398L55.8006 5.77L59.5268 2.43602C58.1028 0.844504 56.2065 0.199998 54.4206 0.199998V5.2ZM55.8006 5.77L52.0744 9.10397C51.7647 8.75787 51.5586 8.37543 51.4397 8.01864C51.3259 7.67732 51.3106 7.41796 51.3106 7.3H56.3106H61.3106C61.3106 5.75545 60.881 3.94951 59.5268 2.43602L55.8006 5.77ZM56.3106 7.3H51.3106V14.86H56.3106H61.3106V7.3H56.3106ZM56.3106 14.86V19.86H56.5806V14.86V9.86H56.3106V14.86ZM56.5806 14.86L61.2585 16.6256L64.1685 8.91559L59.4906 7.15L54.8127 5.38441L51.9027 13.0944L56.5806 14.86ZM59.4906 7.15L64.1656 8.92327C64.1303 9.0164 64.067 9.14765 63.9617 9.2931C63.8554 9.44015 63.7283 9.57097 63.5922 9.67752L60.5106 5.74L57.4291 1.80247C56.2053 2.76018 55.3384 3.99849 54.8156 5.37673L59.4906 7.15ZM60.5106 5.74L63.5106 9.74C63.3587 9.85395 63.1457 9.97783 62.876 10.0694C62.6046 10.1616 62.3375 10.2 62.1006 10.2V5.2V0.199998C60.3994 0.199998 58.8241 0.754911 57.5106 1.74L60.5106 5.74ZM62.1006 5.2V10.2H67.0206V5.2V0.199998H62.1006V5.2ZM67.0206 5.2V10.2C66.8271 10.2 66.3024 10.1746 65.6528 9.8748C64.9287 9.5406 64.2583 8.95737 63.8198 8.16821L68.1906 5.74L72.5614 3.31179C71.1382 0.749943 68.5836 0.199998 67.0206 0.199998V5.2ZM68.1906 5.74L63.9242 8.34724C63.0131 6.85626 63.4553 5.53574 63.5156 5.37673L68.1906 7.15L72.8656 8.92327C73.3659 7.60426 73.8082 5.34373 72.457 3.13275L68.1906 5.74ZM68.1906 7.15L63.5043 5.40685L59.3643 16.5368L64.0506 18.28L68.7369 20.0232L72.8769 8.89315L68.1906 7.15ZM64.0506 18.28L59.4033 20.1246L64.0233 31.7646L68.6706 29.92L73.3179 28.0754L68.698 16.4354L64.0506 18.28ZM86.6603 31.27L90.3865 34.604L90.3865 34.604L86.6603 31.27ZM86.6603 5.77L90.3865 2.43603V2.43602L86.6603 5.77ZM86.6603 11.83L90.0871 15.471L90.1423 15.4191L90.1959 15.3655L86.6603 11.83ZM85.2803 12.46L84.4308 7.5327L84.3973 7.53847L84.3639 7.5447L85.2803 12.46ZM78.2603 12.46L79.0143 7.51718L73.2603 6.63945V12.46H78.2603ZM78.2603 14.95H73.2603V18.862L77.0574 19.8031L78.2603 14.95ZM85.2803 14.95L84.2327 10.061L84.1547 10.0777L84.0774 10.0969L85.2803 14.95ZM86.0303 15.01L83.9613 19.5618L84.2002 19.6704L84.4492 19.7534L86.0303 15.01ZM86.6303 15.43L82.726 18.5535L82.8167 18.6669L82.9138 18.7748L86.6303 15.43ZM87.0203 16.15L82.2127 17.5236L82.2572 17.6792L82.3116 17.8317L87.0203 16.15ZM86.6303 21.25L83.3085 17.513L83.2553 17.5602L83.2035 17.609L86.6303 21.25ZM85.2803 21.91L84.2327 17.021L84.1883 17.0305L84.1442 17.0408L85.2803 21.91ZM81.7403 22.3L81.6526 27.2992L81.6541 27.2993L81.7403 22.3ZM78.2603 21.91L79.2569 17.0103L73.2603 15.7907V21.91H78.2603ZM78.2603 24.58H73.2603V28.5324L77.1059 29.4449L78.2603 24.58ZM85.2803 24.58L84.2327 19.691L84.1792 19.7025L84.1259 19.7151L85.2803 24.58ZM86.0303 24.64L83.9613 29.1918L84.2002 29.3004L84.4492 29.3834L86.0303 24.64ZM86.6303 25.06L82.726 28.1835L82.8167 28.2969L82.9138 28.4048L86.6303 25.06ZM87.0203 25.78L82.2127 27.1536L82.2572 27.3092L82.3116 27.4617L87.0203 25.78ZM87.1703 29.74H82.1703C82.1703 29.622 82.1856 29.3627 82.2994 29.0214C82.4183 28.6646 82.6244 28.2821 82.9341 27.936L86.6603 31.27L90.3865 34.604C91.7407 33.0905 92.1703 31.2846 92.1703 29.74H87.1703ZM86.6603 31.27L82.9341 27.936C83.2527 27.5799 83.6692 27.2754 84.1515 27.0762C84.6184 26.8834 85.0223 26.84 85.2803 26.84V31.84V36.84C87.0662 36.84 88.9625 36.1955 90.3865 34.604L86.6603 31.27ZM85.2803 31.84V26.84H71.4803V31.84V36.84H85.2803V31.84ZM71.4803 31.84V26.84C71.7383 26.84 72.1423 26.8834 72.6091 27.0762C73.0914 27.2754 73.5079 27.5799 73.8265 27.936L70.1003 31.27L66.3741 34.604C67.7981 36.1955 69.6945 36.84 71.4803 36.84V31.84ZM70.1003 31.27L73.8265 27.936C74.1362 28.2821 74.3423 28.6646 74.4612 29.0214C74.575 29.3627 74.5903 29.622 74.5903 29.74H69.5903H64.5903C64.5903 31.2846 65.0199 33.0905 66.3741 34.604L70.1003 31.27ZM69.5903 29.74H74.5903V7.3H69.5903H64.5903V29.74H69.5903ZM69.5903 7.3H74.5903C74.5903 7.41796 74.575 7.67732 74.4612 8.01864C74.3423 8.37543 74.1362 8.75787 73.8265 9.10397L70.1003 5.77L66.3741 2.43602C65.0199 3.94951 64.5903 5.75544 64.5903 7.3H69.5903ZM70.1003 5.77L73.8265 9.10397C73.5079 9.46007 73.0914 9.76461 72.6091 9.96381C72.1423 10.1566 71.7383 10.2 71.4803 10.2V5.2V0.199998C69.6945 0.199998 67.7981 0.844504 66.3741 2.43602L70.1003 5.77ZM71.4803 5.2V10.2H85.2803V5.2V0.199998H71.4803V5.2ZM85.2803 5.2V10.2C85.0223 10.2 84.6184 10.1566 84.1515 9.96381C83.6692 9.76461 83.2527 9.46007 82.9341 9.10398L86.6603 5.77L90.3865 2.43602C88.9625 0.844504 87.0662 0.199998 85.2803 0.199998V5.2ZM86.6603 5.77L82.9341 9.10397C82.6244 8.75787 82.4183 8.37543 82.2994 8.01863C82.1856 7.67732 82.1703 7.41796 82.1703 7.3H87.1703H92.1703C92.1703 5.75545 91.7407 3.94951 90.3865 2.43603L86.6603 5.77ZM87.1703 7.3H82.1703V10.36H87.1703H92.1703V7.3H87.1703ZM87.1703 10.36H82.1703C82.1703 10.1277 82.2487 9.17051 83.1248 8.29447L86.6603 11.83L90.1959 15.3655C91.7519 13.8095 92.1703 11.8723 92.1703 10.36H87.1703ZM86.6603 11.83L83.2335 8.189C83.7733 7.68091 84.2955 7.55602 84.4308 7.5327L85.2803 12.46L86.1298 17.3873C87.4251 17.164 88.8673 16.6191 90.0871 15.471L86.6603 11.83ZM85.2803 12.46L84.3639 7.5447C83.503 7.7052 82.6689 7.77475 81.8565 7.76074L81.7703 12.76L81.6841 17.7593C83.1917 17.7852 84.6976 17.6548 86.1967 17.3753L85.2803 12.46ZM81.7703 12.76L81.8565 7.76074C80.9265 7.74471 79.9796 7.66442 79.0143 7.51718L78.2603 12.46L77.5063 17.4028C78.9011 17.6156 80.2942 17.7353 81.6841 17.7593L81.7703 12.76ZM78.2603 12.46H73.2603V14.95H78.2603H83.2603V12.46H78.2603ZM78.2603 14.95L77.0574 19.8031C80.1874 20.579 83.3532 20.579 86.4832 19.8031L85.2803 14.95L84.0774 10.0969C82.5274 10.481 81.0132 10.481 79.4632 10.0969L78.2603 14.95ZM85.2803 14.95L86.328 19.839C85.7597 19.9608 84.8882 19.9831 83.9613 19.5618L86.0303 15.01L88.0993 10.4582C86.7325 9.83687 85.361 9.81921 84.2327 10.061L85.2803 14.95ZM86.0303 15.01L84.4492 19.7534C83.7628 19.5246 83.1601 19.0962 82.726 18.5535L86.6303 15.43L90.5347 12.3065C89.7805 11.3638 88.7778 10.6554 87.6115 10.2666L86.0303 15.01ZM86.6303 15.43L82.9138 18.7748C82.5439 18.3638 82.3242 17.9138 82.2127 17.5236L87.0203 16.15L91.8279 14.7764C91.5564 13.8262 91.0767 12.8962 90.3468 12.0852L86.6303 15.43ZM87.0203 16.15L82.3116 17.8317C82.2046 17.5322 82.1703 17.2593 82.1703 17.05H87.1703H92.1703C92.1703 16.2007 92.036 15.3278 91.729 14.4683L87.0203 16.15ZM87.1703 17.05H82.1703V19.81H87.1703H92.1703V17.05H87.1703ZM87.1703 19.81H82.1703C82.1703 19.6737 82.1881 19.3358 82.3537 18.8944C82.5302 18.4236 82.8419 17.9277 83.3085 17.513L86.6303 21.25L89.9521 24.987C91.7008 23.4327 92.1703 21.3833 92.1703 19.81H87.1703ZM86.6303 21.25L83.2035 17.609C83.6636 17.176 84.1024 17.0489 84.2327 17.021L85.2803 21.91L86.328 26.799C87.5782 26.5311 88.9171 25.964 90.0571 24.891L86.6303 21.25ZM85.2803 21.91L84.1442 17.0408C83.3199 17.2331 82.5506 17.3132 81.8265 17.3007L81.7403 22.3L81.6541 27.2993C83.25 27.3268 84.8407 27.1469 86.4165 26.7792L85.2803 21.91ZM81.7403 22.3L81.828 17.3008C81.0099 17.2864 80.1543 17.1928 79.2569 17.0103L78.2603 21.91L77.2638 26.8097C78.7264 27.1072 80.1907 27.2736 81.6526 27.2992L81.7403 22.3ZM78.2603 21.91H73.2603V24.58H78.2603H83.2603V21.91H78.2603ZM78.2603 24.58L77.1059 29.4449C78.647 29.8106 80.2043 30 81.7703 30V25V20C81.0163 20 80.2337 19.9094 79.4147 19.7151L78.2603 24.58ZM81.7703 25V30C83.3363 30 84.8936 29.8106 86.4347 29.4449L85.2803 24.58L84.1259 19.7151C83.307 19.9094 82.5243 20 81.7703 20V25ZM85.2803 24.58L86.328 29.469C85.7597 29.5908 84.8882 29.6131 83.9613 29.1918L86.0303 24.64L88.0993 20.0882C86.7325 19.4669 85.361 19.4492 84.2327 19.691L85.2803 24.58ZM86.0303 24.64L84.4492 29.3834C83.7628 29.1546 83.1601 28.7262 82.726 28.1835L86.6303 25.06L90.5347 21.9365C89.7805 20.9938 88.7778 20.2854 87.6115 19.8966L86.0303 24.64ZM86.6303 25.06L82.9138 28.4048C82.5439 27.9938 82.3242 27.5438 82.2127 27.1536L87.0203 25.78L91.8279 24.4064C91.5564 23.4562 91.0767 22.5262 90.3468 21.7152L86.6303 25.06ZM87.0203 25.78L82.3116 27.4617C82.2046 27.1622 82.1703 26.8893 82.1703 26.68H87.1703H92.1703C92.1703 25.8307 92.036 24.9578 91.729 24.0983L87.0203 25.78ZM87.1703 26.68H82.1703V29.74H87.1703H92.1703V26.68H87.1703ZM102.392 31.27L106.118 34.604V34.604L102.392 31.27ZM94.172 31.27L90.4458 34.604L90.4933 34.657L90.5423 34.7087L94.172 31.27ZM93.662 13.66H98.662V8.66H93.662V13.66ZM89.042 13.09L85.3158 16.424L85.3633 16.477L85.4123 16.5287L89.042 13.09ZM89.042 5.77L85.4123 2.33127L85.3633 2.38296L85.3158 2.43602L89.042 5.77ZM107.522 5.77L103.796 9.10397L103.796 9.10398L107.522 5.77ZM107.522 13.09L103.796 9.75603V9.75603L107.522 13.09ZM102.902 13.66V8.66H97.902V13.66H102.902ZM102.902 29.74H97.902C97.902 29.622 97.9173 29.3627 98.0311 29.0214C98.15 28.6646 98.3562 28.2821 98.6658 27.936L102.392 31.27L106.118 34.604C107.472 33.0905 107.902 31.2846 107.902 29.74H102.902ZM102.392 31.27L98.6658 27.936C98.9844 27.5799 99.401 27.2754 99.8832 27.0762C100.35 26.8834 100.754 26.84 101.012 26.84V31.84V36.84C102.798 36.84 104.694 36.1955 106.118 34.604L102.392 31.27ZM101.012 31.84V26.84H95.552V31.84V36.84H101.012V31.84ZM95.552 31.84V26.84C95.8452 26.84 96.2493 26.8917 96.6958 27.0762C97.1498 27.2637 97.5233 27.5373 97.8018 27.8313L94.172 31.27L90.5423 34.7087C91.9177 36.1606 93.7261 36.84 95.552 36.84V31.84ZM94.172 31.27L97.8982 27.936C98.2079 28.2821 98.414 28.6646 98.533 29.0214C98.6467 29.3627 98.662 29.622 98.662 29.74H93.662H88.662C88.662 31.2846 89.0917 33.0905 90.4458 34.604L94.172 31.27ZM93.662 29.74H98.662V13.66H93.662H88.662V29.74H93.662ZM93.662 13.66V8.66H90.422V13.66V18.66H93.662V13.66ZM90.422 13.66V8.66C90.7152 8.66 91.1193 8.71174 91.5658 8.89619C92.0198 9.08371 92.3933 9.35734 92.6718 9.65128L89.042 13.09L85.4123 16.5287C86.7877 17.9806 88.5961 18.66 90.422 18.66V13.66ZM89.042 13.09L92.7682 9.75603C93.0779 10.1021 93.284 10.4846 93.4029 10.8414C93.5167 11.1827 93.532 11.442 93.532 11.56H88.532H83.532C83.532 13.1046 83.9617 14.9105 85.3158 16.424L89.042 13.09ZM88.532 11.56H93.532V7.3H88.532H83.532V11.56H88.532ZM88.532 7.3H93.532C93.532 7.41796 93.5167 7.67732 93.4029 8.01864C93.284 8.37543 93.0779 8.75787 92.7682 9.10397L89.042 5.77L85.3158 2.43602C83.9617 3.94951 83.532 5.75544 83.532 7.3H88.532ZM89.042 5.77L92.6718 9.20872C92.3933 9.50266 92.0198 9.77629 91.5658 9.96381C91.1193 10.1483 90.7152 10.2 90.422 10.2V5.2V0.199998C88.5961 0.199998 86.7877 0.87942 85.4123 2.33127L89.042 5.77ZM90.422 5.2V10.2H106.142V5.2V0.199998H90.422V5.2ZM106.142 5.2V10.2C105.884 10.2 105.48 10.1566 105.013 9.96381C104.531 9.76461 104.114 9.46007 103.796 9.10397L107.522 5.77L111.248 2.43603C109.824 0.844505 107.928 0.199998 106.142 0.199998V5.2ZM107.522 5.77L103.796 9.10398C103.486 8.75787 103.28 8.37543 103.161 8.01864C103.047 7.67732 103.032 7.41796 103.032 7.3H108.032H113.032C113.032 5.75544 112.602 3.9495 111.248 2.43602L107.522 5.77ZM108.032 7.3H103.032V11.56H108.032H113.032V7.3H108.032ZM108.032 11.56H103.032C103.032 11.442 103.047 11.1827 103.161 10.8414C103.28 10.4846 103.486 10.1021 103.796 9.75603L107.522 13.09L111.248 16.424C112.602 14.9105 113.032 13.1046 113.032 11.56H108.032ZM107.522 13.09L103.796 9.75603C104.114 9.39993 104.531 9.09539 105.013 8.89619C105.48 8.70336 105.884 8.66 106.142 8.66V13.66V18.66C107.928 18.66 109.824 18.0155 111.248 16.424L107.522 13.09ZM106.142 13.66V8.66H102.902V13.66V18.66H106.142V13.66ZM102.902 13.66H97.902V29.74H102.902H107.902V13.66H102.902ZM141.293 31.27L137.663 27.8313L137.614 27.883L137.566 27.936L141.293 31.27ZM135.263 31.27L131.536 34.604L131.536 34.604L135.263 31.27ZM134.753 19.45H139.753V14.45H134.753V19.45ZM134.543 19.45V14.45H130.192L129.591 18.759L134.543 19.45ZM133.103 29.77L128.151 29.079L128.147 29.1046L128.144 29.1301L133.103 29.77ZM132.383 31.27L128.939 27.645L128.892 27.6891L128.847 27.7345L132.383 31.27ZM126.383 31.27L122.847 34.8055L122.892 34.8509L122.939 34.895L126.383 31.27ZM125.693 29.77L130.652 29.1301L130.649 29.1116L130.647 29.0931L125.693 29.77ZM124.283 19.45L129.237 18.7731L128.646 14.45H124.283V19.45ZM124.043 19.45V14.45H119.043V19.45H124.043ZM123.533 31.27L119.806 27.936V27.936L123.533 31.27ZM127.913 7.3L122.934 7.76671L122.936 7.78265L122.938 7.79859L127.913 7.3ZM129.293 21.07L124.318 21.5686L124.769 26.07H129.293V21.07ZM129.503 21.07V26.07H134.027L134.478 21.5686L129.503 21.07ZM130.883 7.3L125.921 6.67982L125.914 6.74053L125.908 6.80141L130.883 7.3ZM131.543 5.77L128.007 2.23446L127.959 2.28223L127.913 2.33127L131.543 5.77ZM141.293 5.77L137.566 9.10398L137.614 9.15704L137.663 9.20872L141.293 5.77ZM141.833 29.74H136.833C136.833 29.5945 136.853 29.3058 136.983 28.9384C137.118 28.5548 137.345 28.1672 137.663 27.8313L141.293 31.27L144.922 34.7087C146.349 33.2026 146.833 31.3588 146.833 29.74H141.833ZM141.293 31.27L137.566 27.936C137.867 27.6004 138.27 27.2962 138.755 27.0913C139.229 26.8911 139.652 26.84 139.943 26.84V31.84V36.84C141.769 36.84 143.631 36.1553 145.019 34.604L141.293 31.27ZM139.943 31.84V26.84H136.643V31.84V36.84H139.943V31.84ZM136.643 31.84V26.84C136.901 26.84 137.305 26.8834 137.771 27.0762C138.254 27.2754 138.67 27.5799 138.989 27.936L135.263 31.27L131.536 34.604C132.96 36.1955 134.857 36.84 136.643 36.84V31.84ZM135.263 31.27L138.989 27.936C139.299 28.2821 139.505 28.6646 139.624 29.0214C139.737 29.3627 139.753 29.622 139.753 29.74H134.753H129.753C129.753 31.2846 130.182 33.0905 131.536 34.604L135.263 31.27ZM134.753 29.74H139.753V19.45H134.753H129.753V29.74H134.753ZM134.753 19.45V14.45H134.543V19.45V24.45H134.753V19.45ZM134.543 19.45L129.591 18.759L128.151 29.079L133.103 29.77L138.055 30.461L139.495 20.141L134.543 19.45ZM133.103 29.77L128.144 29.1301C128.163 28.9778 128.217 28.7338 128.355 28.4463C128.497 28.1516 128.696 27.8757 128.939 27.645L132.383 31.27L135.826 34.895C137.17 33.619 137.855 32.0091 138.062 30.4099L133.103 29.77ZM132.383 31.27L128.847 27.7345C129.12 27.4616 129.476 27.2152 129.897 27.0485C130.311 26.8847 130.68 26.84 130.943 26.84V31.84V36.84C132.733 36.84 134.521 36.2022 135.918 34.8055L132.383 31.27ZM130.943 31.84V26.84H127.853V31.84V36.84H130.943V31.84ZM127.853 31.84V26.84C128.117 26.84 128.47 26.8851 128.858 27.0357C129.251 27.188 129.578 27.4088 129.826 27.645L126.383 31.27L122.939 34.895C124.319 36.2065 126.063 36.84 127.853 36.84V31.84ZM126.383 31.27L129.918 27.7345C130.157 27.9732 130.341 28.2459 130.468 28.5205C130.59 28.7874 130.635 29.0056 130.652 29.1301L125.693 29.77L120.734 30.4099C120.931 31.9394 121.562 33.5209 122.847 34.8055L126.383 31.27ZM125.693 29.77L130.647 29.0931L129.237 18.7731L124.283 19.45L119.329 20.1269L120.739 30.4469L125.693 29.77ZM124.283 19.45V14.45H124.043V19.45V24.45H124.283V19.45ZM124.043 19.45H119.043V29.74H124.043H129.043V19.45H124.043ZM124.043 29.74H119.043C119.043 29.622 119.058 29.3627 119.172 29.0214C119.291 28.6646 119.497 28.2821 119.806 27.936L123.533 31.27L127.259 34.604C128.613 33.0905 129.043 31.2846 129.043 29.74H124.043ZM123.533 31.27L119.806 27.936C120.125 27.5799 120.542 27.2754 121.024 27.0762C121.491 26.8834 121.895 26.84 122.153 26.84V31.84V36.84C123.939 36.84 125.835 36.1955 127.259 34.604L123.533 31.27ZM122.153 31.84V26.84H118.883V31.84V36.84H122.153V31.84ZM118.883 31.84V26.84C119.141 26.84 119.545 26.8834 120.011 27.0762C120.494 27.2754 120.91 27.5799 121.229 27.936L117.503 31.27L113.776 34.604C115.2 36.1955 117.097 36.84 118.883 36.84V31.84ZM117.503 31.27L121.229 27.936C121.539 28.2821 121.745 28.6646 121.864 29.0214C121.977 29.3627 121.993 29.622 121.993 29.74H116.993H111.993C111.993 31.2846 112.422 33.0905 113.776 34.604L117.503 31.27ZM116.993 29.74H121.993V7.3H116.993H111.993V29.74H116.993ZM116.993 7.3H121.993C121.993 7.41796 121.977 7.67732 121.864 8.01864C121.745 8.37543 121.539 8.75787 121.229 9.10397L117.503 5.77L113.776 2.43602C112.422 3.94951 111.993 5.75544 111.993 7.3H116.993ZM117.503 5.77L121.229 9.10397C120.91 9.46007 120.494 9.76461 120.011 9.96381C119.545 10.1566 119.141 10.2 118.883 10.2V5.2V0.199998C117.097 0.199998 115.2 0.844504 113.776 2.43602L117.503 5.77ZM118.883 5.2V10.2H125.813V5.2V0.199998H118.883V5.2ZM125.813 5.2V10.2C125.55 10.2 125.181 10.1553 124.767 9.99153C124.346 9.82476 123.99 9.57839 123.717 9.30553L127.253 5.77L130.788 2.23446C129.391 0.837754 127.603 0.199998 125.813 0.199998V5.2ZM127.253 5.77L123.717 9.30553C123.445 9.03353 123.243 8.72354 123.112 8.41795C122.984 8.12289 122.946 7.88812 122.934 7.76671L127.913 7.3L132.891 6.83329C132.744 5.27069 132.146 3.59217 130.788 2.23446L127.253 5.77ZM127.913 7.3L122.938 7.79859L124.318 21.5686L129.293 21.07L134.268 20.5714L132.888 6.80141L127.913 7.3ZM129.293 21.07V26.07H129.503V21.07V16.07H129.293V21.07ZM129.503 21.07L134.478 21.5686L135.858 7.79859L130.883 7.3L125.908 6.80141L124.528 20.5714L129.503 21.07ZM130.883 7.3L135.844 7.92018C135.823 8.08781 135.701 8.65044 135.172 9.20872L131.543 5.77L127.913 2.33127C126.664 3.64956 126.102 5.23218 125.921 6.67982L130.883 7.3ZM131.543 5.77L135.078 9.30553C134.805 9.57839 134.449 9.82476 134.028 9.99153C133.614 10.1553 133.245 10.2 132.983 10.2V5.2V0.199998C131.193 0.199998 129.404 0.837755 128.007 2.23446L131.543 5.77ZM132.983 5.2V10.2H139.943V5.2V0.199998H132.983V5.2ZM139.943 5.2V10.2C139.652 10.2 139.229 10.1489 138.755 9.94875C138.27 9.74378 137.867 9.43965 137.566 9.10398L141.293 5.77L145.019 2.43602C143.631 0.884662 141.769 0.199998 139.943 0.199998V5.2ZM141.293 5.77L137.663 9.20872C137.345 8.87275 137.118 8.48517 136.983 8.1016C136.853 7.73418 136.833 7.44547 136.833 7.3H141.833H146.833C146.833 5.68124 146.349 3.8374 144.922 2.33127L141.293 5.77ZM141.833 7.3H136.833V29.74H141.833H146.833V7.3H141.833ZM162.037 30.37L158.469 26.8677L158.452 26.8846L158.436 26.9018L162.037 30.37ZM145.357 30.37L141.789 33.8723L145.357 30.37ZM162.037 6.67L158.436 10.1382L158.452 10.1554L158.469 10.1723L162.037 6.67ZM154.687 24.7V29.7H158.61L159.544 25.8893L154.687 24.7ZM155.437 18.61L150.438 18.5157L150.438 18.539L150.437 18.5624L155.437 18.61ZM154.807 12.34L159.687 11.2503L158.814 7.34H154.807V12.34ZM152.317 12.34V7.34H146.051L147.442 13.4502L152.317 12.34ZM152.977 18.55L147.977 18.5028V18.5028L152.977 18.55ZM152.317 24.7L147.426 23.6625L146.145 29.7H152.317V24.7ZM163.627 25.57H158.627C158.627 26.2272 158.543 26.6062 158.483 26.7878C158.431 26.9463 158.406 26.932 158.469 26.8677L162.037 30.37L165.606 33.8723C167.898 31.5366 168.627 28.4685 168.627 25.57H163.627ZM162.037 30.37L158.436 26.9018C158.435 26.9024 158.437 26.9004 158.441 26.8969C158.445 26.8934 158.45 26.8901 158.454 26.8877C158.463 26.8816 158.457 26.8873 158.425 26.8994C158.358 26.9242 158.139 26.99 157.687 26.99V31.99V36.99C160.558 36.99 163.439 36.1222 165.639 33.8382L162.037 30.37ZM157.687 31.99V26.99H149.737V31.99V36.99H157.687V31.99ZM149.737 31.99V26.99C149.287 26.99 149.06 26.9244 148.982 26.8955C148.961 26.888 148.948 26.882 148.941 26.8785C148.934 26.875 148.931 26.873 148.931 26.8729C148.931 26.8727 148.931 26.8727 148.931 26.8729C148.931 26.873 148.931 26.873 148.931 26.8731C148.931 26.8732 148.931 26.8732 148.931 26.8732C148.931 26.8732 148.931 26.8731 148.931 26.873C148.931 26.8728 148.931 26.8725 148.93 26.8721C148.929 26.8713 148.928 26.8699 148.926 26.8677L145.357 30.37L141.789 33.8723C143.996 36.1213 146.863 36.99 149.737 36.99V31.99ZM145.357 30.37L148.926 26.8677C148.989 26.932 148.964 26.9463 148.911 26.7878C148.851 26.6062 148.767 26.2272 148.767 25.57H143.767H138.767C138.767 28.4685 139.496 31.5366 141.789 33.8723L145.357 30.37ZM143.767 25.57H148.767V11.47H143.767H138.767V25.57H143.767ZM143.767 11.47H148.767C148.767 10.8128 148.851 10.4338 148.911 10.2522C148.964 10.0937 148.989 10.108 148.926 10.1723L145.357 6.67L141.789 3.16766C139.496 5.50335 138.767 8.57146 138.767 11.47H143.767ZM145.357 6.67L148.926 10.1723C148.928 10.1701 148.929 10.1687 148.93 10.1679C148.931 10.1675 148.931 10.1672 148.931 10.167C148.931 10.1669 148.931 10.1668 148.931 10.1668C148.931 10.1668 148.931 10.1668 148.931 10.1669C148.931 10.167 148.931 10.167 148.931 10.1671C148.931 10.1673 148.931 10.1673 148.931 10.1671C148.931 10.167 148.934 10.165 148.941 10.1615C148.948 10.158 148.961 10.152 148.982 10.1445C149.06 10.1155 149.287 10.05 149.737 10.05V5.05V0.0499988C146.863 0.0499988 143.996 0.91873 141.789 3.16766L145.357 6.67ZM149.737 5.05V10.05H157.687V5.05V0.0499988H149.737V5.05ZM157.687 5.05V10.05C158.139 10.05 158.358 10.1158 158.425 10.1406C158.457 10.1527 158.463 10.1584 158.454 10.1523C158.45 10.1499 158.445 10.1466 158.441 10.1431C158.437 10.1396 158.435 10.1376 158.436 10.1382L162.037 6.67L165.639 3.20179C163.439 0.917755 160.558 0.0499988 157.687 0.0499988V5.05ZM162.037 6.67L158.469 10.1723C158.406 10.108 158.431 10.0937 158.483 10.2522C158.543 10.4338 158.627 10.8128 158.627 11.47H163.627H168.627C168.627 8.57146 167.898 5.50335 165.606 3.16766L162.037 6.67ZM163.627 11.47H158.627V25.57H163.627H168.627V11.47H163.627ZM154.687 24.7L159.544 25.8893C160.119 23.5406 160.413 21.1268 160.437 18.6576L155.437 18.61L150.437 18.5624C150.421 20.2932 150.215 21.9394 149.831 23.5107L154.687 24.7ZM155.437 18.61L160.436 18.7043C160.484 16.1882 160.234 13.7006 159.687 11.2503L154.807 12.34L149.927 13.4297C150.3 15.0994 150.471 16.7918 150.438 18.5157L155.437 18.61ZM154.807 12.34V7.34H152.317V12.34V17.34H154.807V12.34ZM152.317 12.34L147.442 13.4502C147.814 15.0818 147.994 16.763 147.977 18.5028L152.977 18.55L157.977 18.5972C158.001 16.097 157.741 13.6382 157.192 11.2298L152.317 12.34ZM152.977 18.55L147.977 18.5028C147.96 20.3056 147.774 22.0232 147.426 23.6625L152.317 24.7L157.208 25.7375C157.701 23.4168 157.954 21.0344 157.977 18.5972L152.977 18.55ZM152.317 24.7V29.7H154.687V24.7V19.7H152.317V24.7ZM184.438 31.27L180.808 27.8313L180.759 27.883L180.711 27.936L184.438 31.27ZM178.348 31.3L181.348 27.3V27.3L178.348 31.3ZM177.298 29.89L172.602 31.6082L172.612 31.6358L172.623 31.6633L177.298 29.89ZM173.368 19.15L178.063 17.4318L176.862 14.15H173.368V19.15ZM173.128 19.15V14.15H168.128V19.15H173.128ZM172.618 31.27L176.344 34.604L172.618 31.27ZM172.138 5.74L169.056 9.67752L169.096 9.70918L169.138 9.74L172.138 5.74ZM173.188 7.15L177.879 5.42026L177.871 5.39846L177.863 5.37673L173.188 7.15ZM177.148 17.89L172.456 19.6197L173.662 22.89H177.148V17.89ZM177.358 17.89V22.89H182.358V17.89H177.358ZM184.438 5.77L180.711 9.10398L180.759 9.15704L180.808 9.20872L184.438 5.77ZM184.978 29.74H179.978C179.978 29.5945 179.998 29.3058 180.128 28.9384C180.263 28.5548 180.49 28.1672 180.808 27.8313L184.438 31.27L188.067 34.7087C189.494 33.2026 189.978 31.3588 189.978 29.74H184.978ZM184.438 31.27L180.711 27.936C181.012 27.6004 181.415 27.2962 181.9 27.0913C182.374 26.8911 182.797 26.84 183.088 26.84V31.84V36.84C184.914 36.84 186.776 36.1553 188.164 34.604L184.438 31.27ZM183.088 31.84V26.84H179.908V31.84V36.84H183.088V31.84ZM179.908 31.84V26.84C180.174 26.84 180.458 26.8847 180.733 26.9801C181.005 27.0742 181.21 27.1971 181.348 27.3L178.348 31.3L175.348 35.3C176.627 36.2598 178.186 36.84 179.908 36.84V31.84ZM178.348 31.3L181.348 27.3C181.482 27.4008 181.617 27.5324 181.735 27.6912C181.853 27.8489 181.928 27.9989 181.973 28.1167L177.298 29.89L172.623 31.6633C173.167 33.0976 174.083 34.3515 175.348 35.3L178.348 31.3ZM177.298 29.89L181.993 28.1718L178.063 17.4318L173.368 19.15L168.672 20.8682L172.602 31.6082L177.298 29.89ZM173.368 19.15V14.15H173.128V19.15V24.15H173.368V19.15ZM173.128 19.15H168.128V29.74H173.128H178.128V19.15H173.128ZM173.128 29.74H168.128C168.128 29.622 168.143 29.3627 168.257 29.0214C168.376 28.6646 168.582 28.2821 168.891 27.936L172.618 31.27L176.344 34.604C177.698 33.0905 178.128 31.2846 178.128 29.74H173.128ZM172.618 31.27L168.891 27.936C169.21 27.5799 169.627 27.2754 170.109 27.0762C170.576 26.8834 170.98 26.84 171.238 26.84V31.84V36.84C173.023 36.84 174.92 36.1955 176.344 34.604L172.618 31.27ZM171.238 31.84V26.84H167.428V31.84V36.84H171.238V31.84ZM167.428 31.84V26.84C167.686 26.84 168.09 26.8834 168.556 27.0762C169.039 27.2754 169.455 27.5799 169.774 27.936L166.048 31.27L162.321 34.604C163.745 36.1955 165.642 36.84 167.428 36.84V31.84ZM166.048 31.27L169.774 27.936C170.083 28.2821 170.29 28.6646 170.408 29.0214C170.522 29.3627 170.538 29.622 170.538 29.74H165.538H160.538C160.538 31.2846 160.967 33.0905 162.321 34.604L166.048 31.27ZM165.538 29.74H170.538V7.3H165.538H160.538V29.74H165.538ZM165.538 7.3H170.538C170.538 7.41796 170.522 7.67732 170.408 8.01864C170.29 8.37543 170.083 8.75787 169.774 9.10397L166.048 5.77L162.321 2.43602C160.967 3.94951 160.538 5.75544 160.538 7.3H165.538ZM166.048 5.77L169.774 9.10397C169.455 9.46007 169.039 9.76461 168.556 9.96381C168.09 10.1566 167.686 10.2 167.428 10.2V5.2V0.199998C165.642 0.199998 163.745 0.844504 162.321 2.43602L166.048 5.77ZM167.428 5.2V10.2H170.578V5.2V0.199998H167.428V5.2ZM170.578 5.2V10.2C170.341 10.2 170.061 10.1617 169.767 10.0599C169.473 9.95832 169.234 9.81703 169.056 9.67752L172.138 5.74L175.219 1.80247C173.886 0.75936 172.283 0.199998 170.578 0.199998V5.2ZM172.138 5.74L169.138 9.74C169.003 9.63924 168.868 9.50758 168.75 9.34883C168.632 9.19108 168.557 9.0411 168.513 8.92327L173.188 7.15L177.863 5.37673C177.319 3.94238 176.402 2.68849 175.138 1.74L172.138 5.74ZM173.188 7.15L168.496 8.87974L172.456 19.6197L177.148 17.89L181.839 16.1603L177.879 5.42026L173.188 7.15ZM177.148 17.89V22.89H177.358V17.89V12.89H177.148V17.89ZM177.358 17.89H182.358V7.3H177.358H172.358V17.89H177.358ZM177.358 7.3H182.358C182.358 7.41796 182.342 7.67732 182.229 8.01864C182.11 8.37543 181.903 8.75787 181.594 9.10397L177.868 5.77L174.141 2.43602C172.787 3.94951 172.358 5.75545 172.358 7.3H177.358ZM177.868 5.77L181.594 9.10397C181.275 9.46007 180.859 9.76461 180.376 9.96381C179.91 10.1566 179.506 10.2 179.248 10.2V5.2V0.199998C177.462 0.199998 175.565 0.844503 174.141 2.43602L177.868 5.77ZM179.248 5.2V10.2H183.088V5.2V0.199998H179.248V5.2ZM183.088 5.2V10.2C182.797 10.2 182.374 10.1489 181.9 9.94875C181.415 9.74378 181.012 9.43965 180.711 9.10398L184.438 5.77L188.164 2.43602C186.776 0.884662 184.914 0.199998 183.088 0.199998V5.2ZM184.438 5.77L180.808 9.20872C180.49 8.87275 180.263 8.48517 180.128 8.1016C179.998 7.73418 179.978 7.44547 179.978 7.3H184.978H189.978C189.978 5.68124 189.494 3.8374 188.067 2.33127L184.438 5.77ZM184.978 7.3H179.978V29.74H184.978H189.978V7.3H184.978ZM187.402 23.08L191.128 26.414V26.414L187.402 23.08ZM194.332 22.99L190.685 26.4097L190.74 26.4685L190.797 26.5255L194.332 22.99ZM195.172 24.61L190.404 26.1157L190.416 26.1535L190.429 26.1911L195.172 24.61ZM196.072 25.3L195.639 30.2812L195.855 30.3H196.072V25.3ZM198.082 24.94L193.824 22.3195L193.793 22.3697L193.763 22.4206L198.082 24.94ZM198.082 22.93L202.423 20.4493V20.4493L198.082 22.93ZM197.362 22.33L195.435 26.9437L195.52 26.9792L195.607 27.0116L197.362 22.33ZM190.252 19.36L192.179 14.7463L192.129 14.7252L192.078 14.7051L190.252 19.36ZM187.792 17.44L183.661 20.2567L183.683 20.2884L183.705 20.3198L187.792 17.44ZM204.892 6.67L201.291 10.1382L201.307 10.1554L201.324 10.1723L204.892 6.67ZM205.972 14.26L202.246 10.926L202.246 10.926L205.972 14.26ZM198.292 12.73L203.251 12.0924L203.244 12.0366L203.236 11.981L198.292 12.73ZM195.292 12.13L191.034 9.50951L191.003 9.55972L190.973 9.61065L195.292 12.13ZM196.192 15.07L197.954 10.3909L197.902 10.3712L197.85 10.3527L196.192 15.07ZM203.122 17.68L201.36 22.3591L201.373 22.364L201.386 22.3687L203.122 17.68ZM204.532 18.52L201.187 22.2365L201.285 22.3239L201.386 22.4062L204.532 18.52ZM205.582 19.69L201.364 22.3744L201.406 22.4412L201.451 22.5067L205.582 19.69ZM206.242 21.13L201.414 22.4299L201.421 22.454L201.427 22.4782L206.242 21.13ZM206.452 22.63H201.452V22.6555L201.452 22.681L206.452 22.63ZM206.482 25.57H211.482V25.5445L211.482 25.519L206.482 25.57ZM204.892 30.37L201.324 26.8677L201.307 26.8846L201.291 26.9018L204.892 30.37ZM188.482 30.37L184.914 33.8723L188.482 30.37ZM186.892 24.61H191.892C191.892 24.728 191.877 24.9873 191.763 25.3286C191.644 25.6854 191.438 26.0679 191.128 26.414L187.402 23.08L183.676 19.746C182.322 21.2595 181.892 23.0654 181.892 24.61H186.892ZM187.402 23.08L191.128 26.414C190.81 26.7701 190.393 27.0746 189.911 27.2738C189.444 27.4666 189.04 27.51 188.782 27.51V22.51V17.51C186.996 17.51 185.1 18.1545 183.676 19.746L187.402 23.08ZM188.782 22.51V27.51H193.192V22.51V17.51H188.782V22.51ZM193.192 22.51V27.51C192.833 27.51 192.373 27.4451 191.882 27.2382C191.385 27.029 190.983 26.728 190.685 26.4097L194.332 22.99L197.98 19.5703C196.684 18.1881 194.959 17.51 193.192 17.51V22.51ZM194.332 22.99L190.797 26.5255C190.639 26.3681 190.531 26.2288 190.464 26.1322C190.396 26.0352 190.358 25.9653 190.343 25.9366C190.318 25.8869 190.346 25.9309 190.404 26.1157L195.172 24.61L199.94 23.1043C199.616 22.0792 199.037 20.6237 197.868 19.4545L194.332 22.99ZM195.172 24.61L190.429 26.1911C190.759 27.1827 191.389 28.2443 192.46 29.0655C193.518 29.8764 194.672 30.1971 195.639 30.2812L196.072 25.3L196.505 20.3188C197.013 20.3629 197.787 20.5486 198.544 21.1295C199.316 21.7207 199.725 22.4573 199.916 23.0289L195.172 24.61ZM196.072 25.3V30.3H197.302V25.3V20.3H196.072V25.3ZM197.302 25.3V30.3C198.725 30.3 201.048 29.7797 202.401 27.4594L198.082 24.94L193.763 22.4206C194.226 21.6267 194.916 21.0258 195.687 20.6702C196.392 20.345 196.994 20.3 197.302 20.3V25.3ZM198.082 24.94L202.34 27.5605C203.172 26.2094 203.322 24.8095 203.322 23.86H198.322H193.322C193.322 23.8107 193.326 23.6412 193.381 23.3904C193.438 23.1367 193.559 22.7501 193.824 22.3195L198.082 24.94ZM198.322 23.86H203.322V23.83H198.322H193.322V23.86H198.322ZM198.322 23.83H203.322C203.322 22.6328 203.012 21.4786 202.423 20.4493L198.082 22.93L193.741 25.4107C193.473 24.9414 193.322 24.3872 193.322 23.83H198.322ZM198.082 22.93L202.423 20.4493C201.648 19.093 200.46 18.1515 199.118 17.6484L197.362 22.33L195.607 27.0116C195.29 26.893 194.931 26.7026 194.581 26.4111C194.228 26.117 193.947 25.7716 193.741 25.4107L198.082 22.93ZM197.362 22.33L199.289 17.7163L192.179 14.7463L190.252 19.36L188.325 23.9737L195.435 26.9437L197.362 22.33ZM190.252 19.36L192.078 14.7051C191.993 14.6719 191.958 14.6461 191.949 14.6384C191.939 14.6312 191.917 14.6127 191.88 14.5602L187.792 17.44L183.705 20.3198C184.899 22.0152 186.512 23.2642 188.427 24.0149L190.252 19.36ZM187.792 17.44L191.923 14.6233C192.035 14.7877 191.892 14.7199 191.892 14.05H186.892H181.892C181.892 16.1401 182.349 18.3323 183.661 20.2567L187.792 17.44ZM186.892 14.05H191.892V11.47H186.892H181.892V14.05H186.892ZM186.892 11.47H191.892C191.892 10.8128 191.976 10.4338 192.036 10.2522C192.089 10.0937 192.114 10.108 192.051 10.1723L188.482 6.67L184.914 3.16766C182.621 5.50335 181.892 8.57146 181.892 11.47H186.892ZM188.482 6.67L192.051 10.1723C192.053 10.1701 192.054 10.1687 192.055 10.1679C192.056 10.1675 192.056 10.1672 192.056 10.167C192.056 10.1669 192.056 10.1668 192.056 10.1668C192.056 10.1668 192.056 10.1668 192.056 10.1669C192.056 10.167 192.056 10.167 192.056 10.1671C192.056 10.1673 192.056 10.1673 192.056 10.1671C192.056 10.167 192.059 10.165 192.066 10.1615C192.073 10.158 192.086 10.152 192.107 10.1445C192.185 10.1155 192.412 10.05 192.862 10.05V5.05V0.0499988C189.988 0.0499988 187.121 0.91873 184.914 3.16766L188.482 6.67ZM192.862 5.05V10.05H200.512V5.05V0.0499988H192.862V5.05ZM200.512 5.05V10.05C200.98 10.05 201.21 10.1176 201.283 10.1445C201.334 10.1635 201.313 10.1617 201.291 10.1382L204.892 6.67L208.494 3.20179C206.284 0.907354 203.385 0.0499988 200.512 0.0499988V5.05ZM204.892 6.67L201.324 10.1723C201.261 10.108 201.286 10.0937 201.338 10.2522C201.398 10.4338 201.482 10.8128 201.482 11.47H206.482H211.482C211.482 8.57146 210.753 5.50335 208.461 3.16766L204.892 6.67ZM206.482 11.47H201.482V12.73H206.482H211.482V11.47H206.482ZM206.482 12.73H201.482C201.482 12.612 201.497 12.3527 201.611 12.0114C201.73 11.6546 201.936 11.2721 202.246 10.926L205.972 14.26L209.698 17.594C211.053 16.0805 211.482 14.2746 211.482 12.73H206.482ZM205.972 14.26L202.246 10.926C202.565 10.5699 202.981 10.2654 203.463 10.0662C203.93 9.87336 204.334 9.83 204.592 9.83V14.83V19.83C206.378 19.83 208.274 19.1855 209.698 17.594L205.972 14.26ZM204.592 14.83V9.83H200.212V14.83V19.83H204.592V14.83ZM200.212 14.83V9.83C200.468 9.83 200.871 9.87139 201.34 10.0601C201.825 10.2555 202.258 10.5597 202.597 10.9312C203.236 11.6292 203.271 12.2432 203.251 12.0924L198.292 12.73L193.333 13.3676C193.494 14.6168 193.939 16.2808 195.217 17.6788C196.639 19.2336 198.505 19.83 200.212 19.83V14.83ZM198.292 12.73L203.236 11.981C203.092 11.0344 202.688 9.63447 201.505 8.45197C200.219 7.16606 198.624 6.74 197.302 6.74V11.74V16.74C196.54 16.74 195.39 16.4789 194.434 15.523C193.582 14.6705 193.392 13.7656 193.349 13.479L198.292 12.73ZM197.302 11.74V6.74H196.072V11.74V16.74H197.302V11.74ZM196.072 11.74V6.74C194.341 6.74 192.28 7.48447 191.034 9.50951L195.292 12.13L199.55 14.7505C199.168 15.3723 198.589 15.9365 197.843 16.3096C197.133 16.6647 196.487 16.74 196.072 16.74V11.74ZM195.292 12.13L190.973 9.61065C190.184 10.9636 190.082 12.3513 190.082 13.18H195.082H200.082C200.082 13.1903 200.083 13.3283 200.038 13.5531C199.994 13.7734 199.886 14.1784 199.611 14.6494L195.292 12.13ZM195.082 13.18H190.082V13.21H195.082H200.082V13.18H195.082ZM195.082 13.21H190.082C190.082 14.2916 190.282 15.6584 191.066 16.9723C191.904 18.3762 193.163 19.3054 194.535 19.7873L196.192 15.07L197.85 10.3527C198.481 10.5746 199.185 11.0637 199.653 11.8477C200.067 12.5416 200.082 13.1084 200.082 13.21H195.082ZM196.192 15.07L194.43 19.7491L201.36 22.3591L203.122 17.68L204.884 13.0009L197.954 10.3909L196.192 15.07ZM203.122 17.68L201.386 22.3687C201.386 22.3688 201.379 22.3665 201.368 22.361C201.356 22.3554 201.34 22.3471 201.321 22.3355C201.28 22.3114 201.234 22.2783 201.187 22.2365L204.532 18.52L207.877 14.8035C206.975 13.9918 205.95 13.3953 204.859 12.9913L203.122 17.68ZM204.532 18.52L201.386 22.4062C201.397 22.4147 201.396 22.4153 201.388 22.407C201.381 22.3987 201.372 22.3872 201.364 22.3744L205.582 19.69L209.8 17.0056C209.22 16.0933 208.503 15.3014 207.678 14.6338L204.532 18.52ZM205.582 19.69L201.451 22.5067C201.444 22.4963 201.435 22.4811 201.427 22.4633C201.419 22.4455 201.415 22.4331 201.414 22.4299L206.242 21.13L211.07 19.8301C210.786 18.7752 210.333 17.7816 209.713 16.8733L205.582 19.69ZM206.242 21.13L201.427 22.4782C201.449 22.5563 201.452 22.603 201.452 22.63H206.452H211.452C211.452 21.657 211.315 20.7037 211.057 19.7818L206.242 21.13ZM206.452 22.63L201.452 22.681L201.482 25.621L206.482 25.57L211.482 25.519L211.452 22.579L206.452 22.63ZM206.482 25.57H201.482C201.482 26.2272 201.398 26.6062 201.338 26.7878C201.286 26.9463 201.261 26.932 201.324 26.8677L204.892 30.37L208.461 33.8723C210.753 31.5366 211.482 28.4685 211.482 25.57H206.482ZM204.892 30.37L201.291 26.9018C201.313 26.8783 201.334 26.8765 201.283 26.8955C201.21 26.9224 200.98 26.99 200.512 26.99V31.99V36.99C203.385 36.99 206.284 36.1326 208.494 33.8382L204.892 30.37ZM200.512 31.99V26.99H192.862V31.99V36.99H200.512V31.99ZM192.862 31.99V26.99C192.412 26.99 192.185 26.9244 192.107 26.8955C192.086 26.888 192.073 26.882 192.066 26.8785C192.059 26.875 192.056 26.873 192.056 26.8729C192.056 26.8727 192.056 26.8727 192.056 26.8729C192.056 26.873 192.056 26.873 192.056 26.8731C192.056 26.8732 192.056 26.8732 192.056 26.8732C192.056 26.8732 192.056 26.8731 192.056 26.873C192.056 26.8728 192.056 26.8725 192.055 26.8721C192.054 26.8713 192.053 26.8699 192.051 26.8677L188.482 30.37L184.914 33.8723C187.121 36.1213 189.988 36.99 192.862 36.99V31.99ZM188.482 30.37L192.051 26.8677C192.114 26.932 192.089 26.9463 192.036 26.7878C191.976 26.6062 191.892 26.2272 191.892 25.57H186.892H181.892C181.892 28.4685 182.621 31.5366 184.914 33.8723L188.482 30.37ZM186.892 25.57H191.892V24.61H186.892H181.892V25.57H186.892ZM221.689 31.27L225.415 34.604V34.604L221.689 31.27ZM213.469 31.27L209.743 34.604L209.79 34.657L209.839 34.7087L213.469 31.27ZM212.959 13.66H217.959V8.66H212.959V13.66ZM208.339 13.09L204.613 16.424L204.66 16.477L204.709 16.5287L208.339 13.09ZM208.339 5.77L204.709 2.33127L204.66 2.38296L204.613 2.43602L208.339 5.77ZM226.819 5.77L223.093 9.10397V9.10398L226.819 5.77ZM226.819 13.09L223.093 9.75603V9.75603L226.819 13.09ZM222.199 13.66V8.66H217.199V13.66H222.199ZM222.199 29.74H217.199C217.199 29.622 217.214 29.3627 217.328 29.0214C217.447 28.6646 217.653 28.2821 217.963 27.936L221.689 31.27L225.415 34.604C226.769 33.0905 227.199 31.2846 227.199 29.74H222.199ZM221.689 31.27L217.963 27.936C218.281 27.5799 218.698 27.2754 219.18 27.0762C219.647 26.8834 220.051 26.84 220.309 26.84V31.84V36.84C222.095 36.84 223.991 36.1955 225.415 34.604L221.689 31.27ZM220.309 31.84V26.84H214.849V31.84V36.84H220.309V31.84ZM214.849 31.84V26.84C215.142 26.84 215.546 26.8917 215.993 27.0762C216.447 27.2637 216.82 27.5373 217.099 27.8313L213.469 31.27L209.839 34.7087C211.215 36.1606 213.023 36.84 214.849 36.84V31.84ZM213.469 31.27L217.195 27.936C217.505 28.2821 217.711 28.6646 217.83 29.0214C217.944 29.3627 217.959 29.622 217.959 29.74H212.959H207.959C207.959 31.2846 208.389 33.0905 209.743 34.604L213.469 31.27ZM212.959 29.74H217.959V13.66H212.959H207.959V29.74H212.959ZM212.959 13.66V8.66H209.719V13.66V18.66H212.959V13.66ZM209.719 13.66V8.66C210.012 8.66 210.416 8.71174 210.863 8.89619C211.317 9.08371 211.69 9.35734 211.969 9.65128L208.339 13.09L204.709 16.5287C206.085 17.9806 207.893 18.66 209.719 18.66V13.66ZM208.339 13.09L212.065 9.75603C212.375 10.1021 212.581 10.4846 212.7 10.8414C212.814 11.1827 212.829 11.442 212.829 11.56H207.829H202.829C202.829 13.1046 203.259 14.9105 204.613 16.424L208.339 13.09ZM207.829 11.56H212.829V7.3H207.829H202.829V11.56H207.829ZM207.829 7.3H212.829C212.829 7.41796 212.814 7.67732 212.7 8.01864C212.581 8.37543 212.375 8.75787 212.065 9.10397L208.339 5.77L204.613 2.43602C203.259 3.94951 202.829 5.75544 202.829 7.3H207.829ZM208.339 5.77L211.969 9.20872C211.69 9.50266 211.317 9.77629 210.863 9.96381C210.416 10.1483 210.012 10.2 209.719 10.2V5.2V0.199998C207.893 0.199998 206.085 0.87942 204.709 2.33127L208.339 5.77ZM209.719 5.2V10.2H225.439V5.2V0.199998H209.719V5.2ZM225.439 5.2V10.2C225.181 10.2 224.777 10.1566 224.31 9.96381C223.828 9.76461 223.411 9.46007 223.093 9.10397L226.819 5.77L230.545 2.43603C229.121 0.844505 227.225 0.199998 225.439 0.199998V5.2ZM226.819 5.77L223.093 9.10398C222.783 8.75787 222.577 8.37543 222.458 8.01864C222.344 7.67732 222.329 7.41796 222.329 7.3H227.329H232.329C232.329 5.75544 231.899 3.9495 230.545 2.43602L226.819 5.77ZM227.329 7.3H222.329V11.56H227.329H232.329V7.3H227.329ZM227.329 11.56H222.329C222.329 11.442 222.344 11.1827 222.458 10.8414C222.577 10.4846 222.783 10.1021 223.093 9.75603L226.819 13.09L230.545 16.424C231.899 14.9105 232.329 13.1046 232.329 11.56H227.329ZM226.819 13.09L223.093 9.75603C223.411 9.39993 223.828 9.09539 224.31 8.89619C224.777 8.70336 225.181 8.66 225.439 8.66V13.66V18.66C227.225 18.66 229.121 18.0155 230.545 16.424L226.819 13.09ZM225.439 13.66V8.66H222.199V13.66V18.66H225.439V13.66ZM222.199 13.66H217.199V29.74H222.199H227.199V13.66H222.199ZM245.86 31.27L249.586 34.604V34.604L245.86 31.27ZM245.86 5.77L249.586 2.43603V2.43602L245.86 5.77ZM245.86 11.83L249.286 15.471L249.342 15.4191L249.395 15.3655L245.86 11.83ZM244.48 12.46L243.63 7.5327L243.597 7.53847L243.563 7.5447L244.48 12.46ZM237.46 12.46L238.214 7.51718L232.46 6.63945V12.46H237.46ZM237.46 14.95H232.46V18.862L236.257 19.8031L237.46 14.95ZM244.48 14.95L243.432 10.061L243.354 10.0777L243.277 10.0969L244.48 14.95ZM245.23 15.01L243.161 19.5618L243.399 19.6704L243.648 19.7534L245.23 15.01ZM245.83 15.43L241.925 18.5535L242.016 18.6669L242.113 18.7748L245.83 15.43ZM246.22 16.15L241.412 17.5236L241.456 17.6792L241.511 17.8317L246.22 16.15ZM245.83 21.25L242.508 17.513L242.455 17.5602L242.403 17.609L245.83 21.25ZM244.48 21.91L243.432 17.021L243.388 17.0305L243.343 17.0408L244.48 21.91ZM240.94 22.3L240.852 27.2992L240.853 27.2993L240.94 22.3ZM237.46 21.91L238.456 17.0103L232.46 15.7907V21.91H237.46ZM237.46 24.58H232.46V28.5324L236.305 29.4449L237.46 24.58ZM244.48 24.58L243.432 19.691L243.378 19.7025L243.325 19.7151L244.48 24.58ZM245.23 24.64L243.161 29.1918L243.399 29.3004L243.648 29.3834L245.23 24.64ZM245.83 25.06L241.925 28.1835L242.016 28.2969L242.113 28.4048L245.83 25.06ZM246.22 25.78L241.412 27.1536L241.456 27.3092L241.511 27.4617L246.22 25.78ZM246.37 29.74H241.37C241.37 29.622 241.385 29.3627 241.499 29.0214C241.618 28.6646 241.824 28.2821 242.133 27.936L245.86 31.27L249.586 34.604C250.94 33.0905 251.37 31.2846 251.37 29.74H246.37ZM245.86 31.27L242.133 27.936C242.452 27.5799 242.868 27.2754 243.351 27.0762C243.818 26.8834 244.221 26.84 244.48 26.84V31.84V36.84C246.265 36.84 248.162 36.1955 249.586 34.604L245.86 31.27ZM244.48 31.84V26.84H230.68V31.84V36.84H244.48V31.84ZM230.68 31.84V26.84C230.938 26.84 231.341 26.8834 231.808 27.0762C232.291 27.2754 232.707 27.5799 233.026 27.936L229.3 31.27L225.573 34.604C226.997 36.1955 228.894 36.84 230.68 36.84V31.84ZM229.3 31.27L233.026 27.936C233.335 28.2821 233.542 28.6646 233.66 29.0214C233.774 29.3627 233.79 29.622 233.79 29.74H228.79H223.79C223.79 31.2846 224.219 33.0905 225.573 34.604L229.3 31.27ZM228.79 29.74H233.79V7.3H228.79H223.79V29.74H228.79ZM228.79 7.3H233.79C233.79 7.41796 233.774 7.67732 233.66 8.01864C233.542 8.37543 233.335 8.75787 233.026 9.10397L229.3 5.77L225.573 2.43602C224.219 3.94951 223.79 5.75544 223.79 7.3H228.79ZM229.3 5.77L233.026 9.10397C232.707 9.46007 232.291 9.76461 231.808 9.96381C231.341 10.1566 230.938 10.2 230.68 10.2V5.2V0.199998C228.894 0.199998 226.997 0.844504 225.573 2.43602L229.3 5.77ZM230.68 5.2V10.2H244.48V5.2V0.199998H230.68V5.2ZM244.48 5.2V10.2C244.221 10.2 243.818 10.1566 243.351 9.96381C242.868 9.76461 242.452 9.46007 242.133 9.10398L245.86 5.77L249.586 2.43602C248.162 0.844504 246.265 0.199998 244.48 0.199998V5.2ZM245.86 5.77L242.133 9.10397C241.824 8.75787 241.618 8.37543 241.499 8.01863C241.385 7.67732 241.37 7.41796 241.37 7.3H246.37H251.37C251.37 5.75545 250.94 3.94951 249.586 2.43603L245.86 5.77ZM246.37 7.3H241.37V10.36H246.37H251.37V7.3H246.37ZM246.37 10.36H241.37C241.37 10.1277 241.448 9.17051 242.324 8.29447L245.86 11.83L249.395 15.3655C250.951 13.8095 251.37 11.8723 251.37 10.36H246.37ZM245.86 11.83L242.433 8.189C242.973 7.68091 243.495 7.55602 243.63 7.5327L244.48 12.46L245.329 17.3873C246.624 17.164 248.067 16.6191 249.286 15.471L245.86 11.83ZM244.48 12.46L243.563 7.5447C242.702 7.7052 241.868 7.77475 241.056 7.76074L240.97 12.76L240.883 17.7593C242.391 17.7852 243.897 17.6548 245.396 17.3753L244.48 12.46ZM240.97 12.76L241.056 7.76074C240.126 7.74471 239.179 7.66442 238.214 7.51718L237.46 12.46L236.706 17.4028C238.1 17.6156 239.493 17.7353 240.883 17.7593L240.97 12.76ZM237.46 12.46H232.46V14.95H237.46H242.46V12.46H237.46ZM237.46 14.95L236.257 19.8031C239.387 20.579 242.552 20.579 245.682 19.8031L244.48 14.95L243.277 10.0969C241.727 10.481 240.212 10.481 238.662 10.0969L237.46 14.95ZM244.48 14.95L245.527 19.839C244.959 19.9608 244.087 19.9831 243.161 19.5618L245.23 15.01L247.299 10.4582C245.932 9.83687 244.56 9.81921 243.432 10.061L244.48 14.95ZM245.23 15.01L243.648 19.7534C242.962 19.5246 242.359 19.0962 241.925 18.5535L245.83 15.43L249.734 12.3065C248.98 11.3638 247.977 10.6554 246.811 10.2666L245.23 15.01ZM245.83 15.43L242.113 18.7748C241.743 18.3638 241.523 17.9138 241.412 17.5236L246.22 16.15L251.027 14.7764C250.756 13.8262 250.276 12.8962 249.546 12.0852L245.83 15.43ZM246.22 16.15L241.511 17.8317C241.404 17.5322 241.37 17.2593 241.37 17.05H246.37H251.37C251.37 16.2007 251.235 15.3278 250.928 14.4683L246.22 16.15ZM246.37 17.05H241.37V19.81H246.37H251.37V17.05H246.37ZM246.37 19.81H241.37C241.37 19.6737 241.387 19.3358 241.553 18.8944C241.729 18.4236 242.041 17.9277 242.508 17.513L245.83 21.25L249.151 24.987C250.9 23.4327 251.37 21.3833 251.37 19.81H246.37ZM245.83 21.25L242.403 17.609C242.863 17.176 243.302 17.0489 243.432 17.021L244.48 21.91L245.527 26.799C246.777 26.5311 248.116 25.964 249.256 24.891L245.83 21.25ZM244.48 21.91L243.343 17.0408C242.519 17.2331 241.75 17.3132 241.026 17.3007L240.94 22.3L240.853 27.2993C242.449 27.3268 244.04 27.1469 245.616 26.7792L244.48 21.91ZM240.94 22.3L241.027 17.3008C240.209 17.2864 239.353 17.1928 238.456 17.0103L237.46 21.91L236.463 26.8097C237.926 27.1072 239.39 27.2736 240.852 27.2992L240.94 22.3ZM237.46 21.91H232.46V24.58H237.46H242.46V21.91H237.46ZM237.46 24.58L236.305 29.4449C237.846 29.8106 239.404 30 240.97 30V25V20C240.216 20 239.433 19.9094 238.614 19.7151L237.46 24.58ZM240.97 25V30C242.536 30 244.093 29.8106 245.634 29.4449L244.48 24.58L243.325 19.7151C242.506 19.9094 241.724 20 240.97 20V25ZM244.48 24.58L245.527 29.469C244.959 29.5908 244.087 29.6131 243.161 29.1918L245.23 24.64L247.299 20.0882C245.932 19.4669 244.56 19.4492 243.432 19.691L244.48 24.58ZM245.23 24.64L243.648 29.3834C242.962 29.1546 242.359 28.7262 241.925 28.1835L245.83 25.06L249.734 21.9365C248.98 20.9938 247.977 20.2854 246.811 19.8966L245.23 24.64ZM245.83 25.06L242.113 28.4048C241.743 27.9938 241.523 27.5438 241.412 27.1536L246.22 25.78L251.027 24.4064C250.756 23.4562 250.276 22.5262 249.546 21.7152L245.83 25.06ZM246.22 25.78L241.511 27.4617C241.404 27.1622 241.37 26.8893 241.37 26.68H246.37H251.37C251.37 25.8307 251.235 24.9578 250.928 24.0983L246.22 25.78ZM246.37 26.68H241.37V29.74H246.37H251.37V26.68H246.37ZM267.801 29.8L262.907 30.8235L262.915 30.8625L262.924 30.9013L267.801 29.8ZM267.621 31.27L263.568 28.3425L263.531 28.3941L263.495 28.4466L267.621 31.27ZM260.211 31.27L263.566 27.5623L263.516 27.5173L263.465 27.4737L260.211 31.27ZM259.401 29.8L264.31 28.8499L264.3 28.7986L264.289 28.7476L259.401 29.8ZM258.051 23.53L262.939 22.4776L262.089 18.53H258.051V23.53ZM256.431 23.53V18.53H251.431V23.53H256.431ZM266.181 6.82L262.58 10.2882L262.596 10.3054L262.613 10.3223L266.181 6.82ZM266.151 21.91L262.583 18.407L260.71 20.3155L261.257 22.9335L266.151 21.91ZM259.551 16.51L258.339 11.6593L258.287 11.6722L258.236 11.6862L259.551 16.51ZM260.001 16.06L255.163 14.7979L255.157 14.8226L255.151 14.8473L260.001 16.06ZM260.001 13.03L255.194 14.4036L255.203 14.4352L255.212 14.4667L260.001 13.03ZM256.341 12.19V7.19H250.086L251.464 13.2913L256.341 12.19ZM256.341 16.6L251.464 15.4987L250.086 21.6H256.341V16.6ZM267.801 29.8L262.924 30.9013C262.888 30.7419 262.677 29.5763 263.568 28.3425L267.621 31.27L271.675 34.1975C273.086 32.2437 272.994 30.0981 272.678 28.6987L267.801 29.8ZM267.621 31.27L263.495 28.4466C263.882 27.88 264.427 27.4238 265.05 27.142C265.632 26.8787 266.118 26.84 266.361 26.84V31.84V36.84C268.109 36.84 270.313 36.1903 271.748 34.0934L267.621 31.27ZM266.361 31.84V26.84H261.711V31.84V36.84H266.361V31.84ZM261.711 31.84V26.84C261.977 26.84 262.314 26.8855 262.677 27.0236C263.043 27.1624 263.342 27.3597 263.566 27.5623L260.211 31.27L256.857 34.9777C258.22 36.2112 259.924 36.84 261.711 36.84V31.84ZM260.211 31.27L263.465 27.4737C263.715 27.6882 263.922 27.9458 264.073 28.2195C264.22 28.4861 264.284 28.7126 264.31 28.8499L259.401 29.8L254.492 30.7501C254.795 32.3134 255.561 33.8692 256.957 35.0663L260.211 31.27ZM259.401 29.8L264.289 28.7476L262.939 22.4776L258.051 23.53L253.163 24.5824L254.513 30.8524L259.401 29.8ZM258.051 23.53V18.53H256.431V23.53V28.53H258.051V23.53ZM256.431 23.53H251.431V29.74H256.431H261.431V23.53H256.431ZM256.431 29.74H251.431C251.431 29.622 251.447 29.3627 251.56 29.0214C251.679 28.6646 251.885 28.2821 252.195 27.936L255.921 31.27L259.647 34.604C261.002 33.0905 261.431 31.2846 261.431 29.74H256.431ZM255.921 31.27L252.195 27.936C252.514 27.5799 252.93 27.2754 253.412 27.0762C253.879 26.8834 254.283 26.84 254.541 26.84V31.84V36.84C256.327 36.84 258.223 36.1955 259.647 34.604L255.921 31.27ZM254.541 31.84V26.84H250.191V31.84V36.84H254.541V31.84ZM250.191 31.84V26.84C250.449 26.84 250.853 26.8834 251.32 27.0762C251.802 27.2754 252.219 27.5799 252.537 27.936L248.811 31.27L245.085 34.604C246.509 36.1955 248.405 36.84 250.191 36.84V31.84ZM248.811 31.27L252.537 27.936C252.847 28.2821 253.053 28.6646 253.172 29.0214C253.286 29.3627 253.301 29.622 253.301 29.74H248.301H243.301C243.301 31.2846 243.731 33.0905 245.085 34.604L248.811 31.27ZM248.301 29.74H253.301V7.3H248.301H243.301V29.74H248.301ZM248.301 7.3H253.301C253.301 7.41796 253.286 7.67732 253.172 8.01864C253.053 8.37543 252.847 8.75787 252.537 9.10397L248.811 5.77L245.085 2.43602C243.731 3.94951 243.301 5.75544 243.301 7.3H248.301ZM248.811 5.77L252.537 9.10397C252.219 9.46007 251.802 9.76461 251.32 9.96381C250.853 10.1566 250.449 10.2 250.191 10.2V5.2V0.199998C248.405 0.199998 246.509 0.844504 245.085 2.43602L248.811 5.77ZM250.191 5.2V10.2H261.801V5.2V0.199998H250.191V5.2ZM261.801 5.2V10.2C262.269 10.2 262.499 10.2676 262.572 10.2945C262.623 10.3135 262.602 10.3117 262.58 10.2882L266.181 6.82L269.783 3.35179C267.573 1.05735 264.674 0.199998 261.801 0.199998V5.2ZM266.181 6.82L262.613 10.3223C262.55 10.258 262.575 10.2437 262.627 10.4022C262.688 10.5838 262.771 10.9628 262.771 11.62H267.771H272.771C272.771 8.72146 272.042 5.65335 269.75 3.31766L266.181 6.82ZM267.771 11.62H262.771V17.11H267.771H272.771V11.62H267.771ZM267.771 17.11H262.771C262.771 17.7433 262.689 18.1092 262.629 18.2861C262.577 18.4405 262.546 18.4452 262.583 18.407L266.151 21.91L269.719 25.413C272.009 23.0811 272.771 20.035 272.771 17.11H267.771ZM266.151 21.91L261.257 22.9335L262.907 30.8235L267.801 29.8L272.695 28.7765L271.045 20.8865L266.151 21.91ZM258.651 16.6V21.6C259.223 21.6 260.028 21.5626 260.867 21.3338L259.551 16.51L258.236 11.6862C258.463 11.6241 258.62 11.6067 258.664 11.6023C258.715 11.5972 258.716 11.6 258.651 11.6V16.6ZM259.551 16.51L260.764 21.3607C261.615 21.1479 262.564 20.7038 263.379 19.888C264.195 19.0723 264.639 18.1238 264.852 17.2727L260.001 16.06L255.151 14.8473C255.303 14.2362 255.642 13.4827 256.308 12.817C256.974 12.1512 257.727 11.8121 258.339 11.6593L259.551 16.51ZM260.001 16.06L264.839 17.3221C265.087 16.3714 265.181 15.4162 265.181 14.5H260.181H255.181C255.181 14.7438 255.155 14.8286 255.163 14.7979L260.001 16.06ZM260.181 14.5H265.181C265.181 13.6074 265.093 12.601 264.79 11.5933L260.001 13.03L255.212 14.4667C255.194 14.408 255.184 14.3641 255.179 14.338C255.174 14.3119 255.173 14.3003 255.173 14.3052C255.174 14.31 255.176 14.3284 255.178 14.3618C255.18 14.3951 255.181 14.4408 255.181 14.5H260.181ZM260.001 13.03L264.809 11.6564C264.425 10.3113 263.571 9.01702 262.185 8.15472C260.913 7.36286 259.601 7.19 258.651 7.19V12.19V17.19C258.442 17.19 257.725 17.1571 256.902 16.6453C255.966 16.063 255.418 15.1887 255.194 14.4036L260.001 13.03ZM258.651 12.19V7.19H256.341V12.19V17.19H258.651V12.19ZM256.341 12.19L251.464 13.2913C251.5 13.4487 251.551 13.7999 251.551 14.41H256.551H261.551C261.551 13.3001 261.463 12.1713 261.218 11.0887L256.341 12.19ZM256.551 14.41H251.551C251.551 14.9902 251.501 15.3342 251.464 15.4987L256.341 16.6L261.218 17.7013C261.461 16.6258 261.551 15.5098 261.551 14.41H256.551ZM256.341 16.6V21.6H258.651V16.6V11.6H256.341V16.6Z" fill="#FFCC03" mask="url(#path-1-outside-1_2_2)"/>
<defs>
<linearGradient id="paint0_linear_2_2" x1="4" y1="20.5" x2="269" y2="20.5" gradientUnits="userSpaceOnUse">
<stop stop-color="#15376F"/>
<stop offset="0.596153" stop-color="#3666AC"/>
</linearGradient>
</defs>
</svg>
